<svg width="19" height="23" viewBox="0 0 19 23" fill="none" xmlns="http://www.w3.org/2000/svg">
<path d="M9.33939 13.5714C11.5585 13.5714 13.3575 11.7724 13.3575 9.55326C13.3575 7.33412 11.5585 5.53516 9.33939 5.53516C7.12026 5.53516 5.32129 7.33412 5.32129 9.55326C5.32129 11.7724 7.12026 13.5714 9.33939 13.5714Z" stroke="#3434FF" stroke-width="1.5" stroke-linecap="round" stroke-linejoin="round"/>
<path d="M17.3751 9.55379C17.3751 16.6078 11.1855 20.5643 9.67021 21.4295C9.56918 21.4872 9.45485 21.5176 9.3385 21.5176C9.22215 21.5176 9.10781 21.4872 9.00678 21.4295C7.49151 20.5634 1.30273 16.606 1.30273 9.55379C1.30273 7.42245 2.1494 5.37841 3.65648 3.87133C5.16357 2.36425 7.20761 1.51758 9.33894 1.51758C11.4703 1.51758 13.5143 2.36425 15.0214 3.87133C16.5285 5.37841 17.3751 7.42245 17.3751 9.55379Z" stroke="#3434FF" stroke-width="1.5" stroke-linecap="round" stroke-linejoin="round"/>
</svg>
