<svg width="21" height="21" viewBox="0 0 21 21" fill="none" xmlns="http://www.w3.org/2000/svg">
<path d="M13.2914 19.0901L13.3014 19.0971C14.1655 19.6472 15.1914 19.8862 16.2096 19.7743C17.2278 19.6625 18.1774 19.2067 18.9014 18.4821L19.5304 17.8531C19.6698 17.7138 19.7804 17.5484 19.8558 17.3663C19.9313 17.1843 19.9701 16.9892 19.9701 16.7921C19.9701 16.595 19.9313 16.3999 19.8558 16.2178C19.7804 16.0358 19.6698 15.8704 19.5304 15.7311L16.8774 13.0801C16.7381 12.9407 16.5727 12.8301 16.3907 12.7547C16.2086 12.6792 16.0135 12.6404 15.8164 12.6404C15.6194 12.6404 15.4242 12.6792 15.2422 12.7547C15.0601 12.8301 14.8947 12.9407 14.7554 13.0801C14.4741 13.3613 14.0927 13.5193 13.6949 13.5193C13.2972 13.5193 12.9157 13.3613 12.6344 13.0801L8.39243 8.83709C8.11122 8.55579 7.95325 8.17433 7.95325 7.77659C7.95325 7.37884 8.11122 6.99738 8.39243 6.71609C8.53182 6.57679 8.6424 6.41138 8.71784 6.22933C8.79328 6.04728 8.83211 5.85215 8.83211 5.65509C8.83211 5.45802 8.79328 5.26289 8.71784 5.08084C8.6424 4.89879 8.53182 4.73339 8.39243 4.59409L5.74043 1.94309C5.45914 1.66188 5.07768 1.50391 4.67993 1.50391C4.28218 1.50391 3.90072 1.66188 3.61943 1.94309L2.98943 2.57209C2.26502 3.29626 1.80935 4.24591 1.69771 5.26412C1.58607 6.28232 1.82515 7.30815 2.37543 8.17209L2.38143 8.18209C5.28761 12.4819 8.99111 16.1847 13.2914 19.0901V19.0901Z" stroke="#3434FF" stroke-width="1.5" stroke-linecap="round" stroke-linejoin="round"/>
</svg>
