<svg width="95" height="95" viewBox="0 0 95 95" fill="none" xmlns="http://www.w3.org/2000/svg">
<path d="M46.9996 85.923C67.9651 85.923 84.9611 68.9271 84.9611 47.9615C84.9611 26.9959 67.9651 10 46.9996 10C26.034 10 9.03809 26.9959 9.03809 47.9615C9.03809 68.9271 26.034 85.923 46.9996 85.923Z" fill="#F6F6FF"/>
<path d="M35.8726 50.9488L34.786 50.778C34.3266 53.6996 34.5693 56.6887 35.494 59.498L35.4975 59.5085C35.5298 59.6033 35.5399 59.7043 35.5269 59.8037C35.5139 59.903 35.4782 59.998 35.4227 60.0814C35.3671 60.1647 35.2931 60.2342 35.2064 60.2844C35.1245 60.3318 35.0334 60.3608 34.9393 60.3695C31.3051 60.4651 27.6787 59.9832 24.1955 58.9417L23.7585 58.8111L23.3573 59.028L20.77 60.4265L20.7625 60.4306L15.0241 63.4747C15.0236 63.4749 15.023 63.4752 15.0225 63.4755C14.9087 63.5348 14.7799 63.5592 14.6522 63.5457C14.5239 63.5322 14.4025 63.4809 14.3033 63.3985C14.2041 63.3161 14.1315 63.2061 14.0947 63.0825C14.0583 62.96 14.0585 62.8296 14.0954 62.7073C14.793 60.5101 15.5255 58.3128 16.2928 56.1154L16.5685 55.326L15.8817 54.8492C11.3385 51.6949 8.07384 47.0192 6.6779 41.6676C6.03509 39.0391 5.92735 36.3082 6.3611 33.6372C6.79512 30.9646 7.76242 28.4066 9.20541 26.1155C12.4143 21.0859 17.2308 17.29 22.8713 15.3457L22.8804 15.3425C27.1133 13.8416 31.6172 13.2588 36.0927 13.6328C40.5683 14.0067 44.913 15.3288 48.8382 17.5113L48.8452 17.5152L48.8522 17.519C51.8576 19.1331 54.4833 21.3711 56.5532 24.0828C58.6209 26.7915 60.0863 29.9105 60.8515 33.2311C60.8709 33.3273 60.8683 33.4267 60.844 33.5219C60.8191 33.6193 60.772 33.7097 60.7064 33.786L60.7016 33.7915L60.697 33.7971C60.6367 33.869 60.5599 33.9254 60.4732 33.9613C60.3874 33.9969 60.2944 34.0115 60.2019 34.0038C56.6997 33.6696 53.1661 34.0595 49.8209 35.1493C46.4745 36.2396 43.3883 38.007 40.7545 40.3415C37.6768 43.0559 35.5812 46.7103 34.7931 50.7376L35.8726 50.9488ZM41.2914 24.5948L41.2878 24.5961C40.5134 24.8731 39.8273 25.3525 39.3008 25.9843C38.778 26.6116 38.4315 27.3665 38.2965 28.1716C38.1442 28.9602 38.2109 29.7755 38.4894 30.529C38.7657 31.2767 39.24 31.9349 39.8613 32.4336C40.6652 33.1479 41.7051 33.5402 42.7812 33.5344C43.4456 33.537 44.1027 33.3959 44.7074 33.1207C45.4356 32.7914 46.0657 32.2783 46.5356 31.6318C47.0058 30.985 47.2995 30.2268 47.3878 29.432C47.4761 28.6372 47.356 27.8331 47.0393 27.0988C46.7225 26.3645 46.2201 25.7253 45.5814 25.2441L45.5755 25.2397C44.969 24.7891 44.2611 24.4947 43.514 24.3822C42.7669 24.2697 42.0036 24.3427 41.2914 24.5948ZM28.795 30.1425C28.9714 29.5368 29.0216 28.9012 28.9423 28.2752C28.8627 27.6471 28.6545 27.0421 28.3306 26.4981C28.0068 25.9541 27.5743 25.4826 27.0601 25.1132C26.546 24.7438 25.9611 24.4843 25.3422 24.351C24.7233 24.2177 24.0835 24.2134 23.4629 24.3384C22.8422 24.4634 22.254 24.715 21.7349 25.0775C21.2158 25.44 20.777 25.9056 20.4459 26.4452C20.1168 26.9817 19.9011 27.5798 19.8121 28.2028C19.6867 28.9919 19.7687 29.8001 20.0502 30.5481C20.3315 31.2955 20.8022 31.9568 21.4161 32.4673C22.219 33.1598 23.2452 33.5389 24.3058 33.5344L24.3136 33.5343C24.8268 33.5285 25.3353 33.437 25.8182 33.2636C26.5297 33.0263 27.1726 32.6189 27.6909 32.0766C28.2116 31.5319 28.5907 30.8678 28.795 30.1425Z" fill="white" stroke="#202058" stroke-width="2.2"/>
<g filter="url(#filter0_d)">
<path d="M65.7953 60.0398C73.5437 60.0398 79.825 57.375 79.825 54.0878C79.825 50.8006 73.5437 48.1358 65.7953 48.1358C58.0469 48.1358 51.7656 50.8006 51.7656 54.0878C51.7656 57.375 58.0469 60.0398 65.7953 60.0398Z" fill="#3434FF" fill-opacity="0.01"/>
<path d="M87.5581 53.264C85.431 48.6781 81.7909 44.9637 77.2489 42.7444C73.3701 40.7953 69.0892 39.7803 64.7482 39.7803C60.4072 39.7803 56.1263 40.7953 52.2475 42.7444C49.4448 44.1011 46.9782 46.063 45.0257 48.4885C43.0731 50.9141 41.6833 53.7427 40.9565 56.7705C39.932 61.3843 40.7498 66.2159 43.2357 70.2355C45.0689 73.0752 47.476 75.5 50.3022 77.3539C53.1285 79.2079 56.3113 80.45 59.6462 81.0005C64.1534 81.8172 68.7894 81.565 73.1814 80.2642C74.3831 80.8324 75.5536 81.4645 76.6879 82.1577C77.7048 82.7187 78.7217 83.3148 79.7736 83.8057C80.0277 83.8619 80.291 83.8619 80.5451 83.8057C80.8172 83.8057 81.0857 83.7424 81.3292 83.6206C81.5726 83.4989 81.7844 83.3222 81.9477 83.1044C82.111 82.8867 82.2214 82.6339 82.27 82.3661C82.3187 82.0983 82.3044 81.8229 82.2282 81.5616C81.6905 79.7849 81.1295 78.02 80.5451 76.2667C83.1975 74.3027 85.368 71.7605 86.8919 68.8329C88.1535 66.4506 88.8679 63.817 88.9832 61.1237C89.0984 58.4304 88.6116 55.7453 87.5581 53.264ZM61.3995 55.403C61.2443 55.9569 60.9552 56.4641 60.5577 56.8799C60.1603 57.2957 59.6666 57.6074 59.1202 57.7874C58.7491 57.9222 58.3579 57.9933 57.9631 57.9978C57.1647 58.0011 56.3921 57.7146 55.7891 57.1913C55.318 56.8018 54.957 56.296 54.7417 55.724C54.5264 55.152 54.4644 54.5336 54.5618 53.9302C54.6288 53.453 54.7934 52.9946 55.0455 52.5838C55.2975 52.1731 55.6315 51.8186 56.0266 51.5427C56.4218 51.2668 56.8695 51.0753 57.342 50.9801C57.8144 50.885 58.3014 50.8882 58.7726 50.9897C59.2437 51.0912 59.6889 51.2887 60.0803 51.5699C60.4717 51.8511 60.8009 52.21 61.0474 52.6241C61.2939 53.0382 61.4524 53.4987 61.513 53.9768C61.5735 54.455 61.5349 54.9404 61.3995 55.403ZM76.1619 55.403C76.0067 55.9569 75.7177 56.4641 75.3202 56.8799C74.9227 57.2957 74.429 57.6074 73.8827 57.7874C73.5116 57.9222 73.1203 57.9933 72.7255 57.9978C71.9271 58.0011 71.1546 57.7146 70.5515 57.1913C70.0805 56.8018 69.7194 56.296 69.5041 55.724C69.2889 55.152 69.2268 54.5336 69.3242 53.9302C69.3912 53.453 69.5559 52.9946 69.8079 52.5838C70.0599 52.1731 70.3939 51.8186 70.7891 51.5427C71.1842 51.2668 71.632 51.0753 72.1044 50.9801C72.5769 50.885 73.0639 50.8882 73.535 50.9897C74.0061 51.0912 74.4513 51.2887 74.8427 51.5699C75.2341 51.8511 75.5633 52.21 75.8098 52.6241C76.0563 53.0382 76.2148 53.4987 76.2754 53.9768C76.336 54.455 76.2973 54.9404 76.1619 55.403Z" fill="#3434FF" fill-opacity="0.01"/>
</g>
<path d="M65.7953 60.0398C73.5437 60.0398 79.825 57.375 79.825 54.0878C79.825 50.8006 73.5437 48.1358 65.7953 48.1358C58.0469 48.1358 51.7656 50.8006 51.7656 54.0878C51.7656 57.375 58.0469 60.0398 65.7953 60.0398Z" fill="#3434FF"/>
<path d="M87.5581 53.264C85.431 48.6781 81.7909 44.9637 77.2489 42.7444C73.3701 40.7953 69.0892 39.7803 64.7482 39.7803C60.4072 39.7803 56.1263 40.7953 52.2475 42.7444C49.4448 44.1011 46.9782 46.063 45.0257 48.4885C43.0731 50.9141 41.6833 53.7427 40.9565 56.7705C39.932 61.3843 40.7498 66.2159 43.2357 70.2355C45.0689 73.0752 47.476 75.5 50.3022 77.3539C53.1285 79.2079 56.3113 80.45 59.6462 81.0005C64.1534 81.8172 68.7894 81.565 73.1814 80.2642C74.3831 80.8324 75.5536 81.4645 76.6879 82.1577C77.7048 82.7187 78.7217 83.3148 79.7736 83.8057C80.0277 83.8619 80.291 83.8619 80.5451 83.8057C80.8172 83.8057 81.0857 83.7424 81.3292 83.6206C81.5726 83.4989 81.7844 83.3222 81.9477 83.1044C82.111 82.8867 82.2214 82.6339 82.27 82.3661C82.3187 82.0983 82.3044 81.8229 82.2282 81.5616C81.6905 79.7849 81.1295 78.02 80.5451 76.2667C83.1975 74.3027 85.368 71.7605 86.8919 68.8329C88.1535 66.4506 88.8679 63.817 88.9832 61.1237C89.0984 58.4304 88.6116 55.7453 87.5581 53.264ZM61.3995 55.403C61.2443 55.9569 60.9552 56.4641 60.5577 56.8799C60.1603 57.2957 59.6666 57.6074 59.1202 57.7874C58.7491 57.9222 58.3579 57.9933 57.9631 57.9978C57.1647 58.0011 56.3921 57.7146 55.7891 57.1913C55.318 56.8018 54.957 56.296 54.7417 55.724C54.5264 55.152 54.4644 54.5336 54.5618 53.9302C54.6288 53.453 54.7934 52.9946 55.0455 52.5838C55.2975 52.1731 55.6315 51.8186 56.0266 51.5427C56.4218 51.2668 56.8695 51.0753 57.342 50.9801C57.8144 50.885 58.3014 50.8882 58.7726 50.9897C59.2437 51.0912 59.6889 51.2887 60.0803 51.5699C60.4717 51.8511 60.8009 52.21 61.0474 52.6241C61.2939 53.0382 61.4524 53.4987 61.513 53.9768C61.5735 54.455 61.5349 54.9404 61.3995 55.403ZM76.1619 55.403C76.0067 55.9569 75.7177 56.4641 75.3202 56.8799C74.9227 57.2957 74.429 57.6074 73.8827 57.7874C73.5116 57.9222 73.1203 57.9933 72.7255 57.9978C71.9271 58.0011 71.1546 57.7146 70.5515 57.1913C70.0805 56.8018 69.7194 56.296 69.5041 55.724C69.2889 55.152 69.2268 54.5336 69.3242 53.9302C69.3912 53.453 69.5559 52.9946 69.8079 52.5838C70.0599 52.1731 70.3939 51.8186 70.7891 51.5427C71.1842 51.2668 71.632 51.0753 72.1044 50.9801C72.5769 50.885 73.0639 50.8882 73.535 50.9897C74.0061 51.0912 74.4513 51.2887 74.8427 51.5699C75.2341 51.8511 75.5633 52.21 75.8098 52.6241C76.0563 53.0382 76.2148 53.4987 76.2754 53.9768C76.336 54.455 76.2973 54.9404 76.1619 55.403Z" fill="#3434FF"/>
<path d="M17.5996 22.5996H49.0996L50.4596 32.4458L39.8286 36.6112L17.5996 35.1996V22.5996Z" fill="white"/>
<path d="M73.2497 52H53.0573C51.9421 52 51.0381 52.904 51.0381 54.0192C51.0381 55.1344 51.9421 56.0385 53.0573 56.0385H73.2497C74.3648 56.0385 75.2689 55.1344 75.2689 54.0192C75.2689 52.904 74.3648 52 73.2497 52Z" fill="white"/>
<path d="M36.904 26.1543H16.7116C15.5964 26.1543 14.6924 27.0583 14.6924 28.1735C14.6924 29.2887 15.5964 30.1928 16.7116 30.1928H36.904C38.0191 30.1928 38.9232 29.2887 38.9232 28.1735C38.9232 27.0583 38.0191 26.1543 36.904 26.1543Z" fill="#DFDFEB"/>
<path d="M65.9804 60.0771H53.0573C51.9421 60.0771 51.0381 60.9811 51.0381 62.0963C51.0381 63.2115 51.9421 64.1156 53.0573 64.1156H65.9804C67.0955 64.1156 67.9996 63.2115 67.9996 62.0963C67.9996 60.9811 67.0955 60.0771 65.9804 60.0771Z" fill="white"/>
<path d="M29.6347 34.2314H16.7116C15.5964 34.2314 14.6924 35.1354 14.6924 36.2506C14.6924 37.3658 15.5964 38.2699 16.7116 38.2699H29.6347C30.7498 38.2699 31.6539 37.3658 31.6539 36.2506C31.6539 35.1354 30.7498 34.2314 29.6347 34.2314Z" fill="#DFDFEB"/>
<defs>
<filter id="filter0_d" x="34.5254" y="38.7803" width="60.4744" height="56.0676" filterUnits="userSpaceOnUse" color-interpolation-filters="sRGB">
<feFlood flood-opacity="0" result="BackgroundImageFix"/>
<feColorMatrix in="SourceAlpha" type="matrix" values="0 0 0 0 0 0 0 0 0 0 0 0 0 0 0 0 0 0 127 0"/>
<feOffset dy="5"/>
<feGaussianBlur stdDeviation="3"/>
<feColorMatrix type="matrix" values="0 0 0 0 0.203922 0 0 0 0 0.203922 0 0 0 0 1 0 0 0 0.28 0"/>
<feBlend mode="normal" in2="BackgroundImageFix" result="effect1_dropShadow"/>
<feBlend mode="normal" in="SourceGraphic" in2="effect1_dropShadow" result="shape"/>
</filter>
</defs>
</svg>
