<svg width="91" height="87" viewBox="0 0 91 87" fill="none" xmlns="http://www.w3.org/2000/svg">
<path d="M45.5 85.5C68.696 85.5 87.5 66.696 87.5 43.5C87.5 20.304 68.696 1.5 45.5 1.5C22.304 1.5 3.5 20.304 3.5 43.5C3.5 66.696 22.304 85.5 45.5 85.5Z" fill="#F6F6FF"/>
<path d="M22.3377 42.0611C22.7724 41.9422 23.0738 41.5472 23.0738 41.0966V40.8351C23.0738 40.4954 22.9014 40.179 22.616 39.9948C19.9243 38.2581 18.0665 34.9742 18.0665 31.1596C18.0665 25.4366 22.2015 20.9897 27.0808 20.9897C31.9584 20.9897 36.0952 25.4367 36.0952 31.1596C36.0952 34.9745 34.2379 38.2585 31.5461 39.9951C31.2606 40.1792 31.0882 40.4957 31.0882 40.8354V41.0961C31.0882 41.5468 31.3897 41.9418 31.8244 42.0607C38.678 43.935 43.5815 49.7285 43.5815 56.4879C43.5815 56.5331 43.5606 56.6768 43.3929 56.9292C43.2286 57.1765 42.959 57.4735 42.5643 57.804C41.7752 58.4644 40.5859 59.1757 39.0607 59.8308C36.0169 61.1384 31.7757 62.1626 27.0801 62.1626C22.4049 62.1626 18.1697 61.0073 15.1174 59.6284C13.5893 58.9381 12.3864 58.2048 11.5839 57.5567C11.181 57.2312 10.9046 56.9478 10.7379 56.7242C10.616 56.5607 10.5866 56.4749 10.5806 56.459C10.5946 49.7128 15.4943 43.9334 22.3377 42.0611Z" fill="white" stroke="#202058" stroke-width="2" stroke-linejoin="round"/>
<path d="M59.2657 41.9765C59.7004 41.8576 60.0018 41.4626 60.0018 41.012V40.7517C60.0018 40.412 59.8294 40.0956 59.544 39.9114C56.8642 38.1824 55.0144 34.913 55.0144 31.1149C55.0144 25.4166 59.1315 20.9897 63.9887 20.9897C68.8442 20.9897 72.963 25.4167 72.963 31.1149C72.963 34.9133 71.1137 38.1828 68.4339 39.9117C68.1484 40.0958 67.976 40.4123 67.976 40.752V41.0115C67.976 41.4622 68.2775 41.8572 68.7122 41.9761C75.5369 43.8425 80.4194 49.6115 80.4194 56.3417C80.4194 56.3857 80.399 56.528 80.2323 56.779C80.0689 57.0249 79.8007 57.3205 79.4077 57.6494C78.6222 58.3069 77.438 59.0151 75.9191 59.6676C72.8879 60.9697 68.6643 61.9897 63.988 61.9897C59.3321 61.9897 55.1145 60.8392 52.0748 59.466C50.553 58.7786 49.3553 58.0483 48.5563 57.4031C48.1552 57.0791 47.8801 56.7971 47.7144 56.5747C47.5943 56.4135 47.5647 56.3286 47.5585 56.3122C47.5728 49.5953 52.4513 43.8408 59.2657 41.9765Z" fill="white" stroke="#202058" stroke-width="2" stroke-linejoin="round"/>
<path d="M38.3305 42.2894C38.7652 42.1704 39.0666 41.7755 39.0666 41.3248V40.9404C39.0666 40.6007 38.8942 40.2843 38.6088 40.1001C34.5161 37.4594 31.7155 32.486 31.7155 26.7359C31.7155 18.1248 37.949 11.3374 45.4177 11.3374C52.8837 11.3374 59.1198 18.1249 59.1198 26.7359C59.1198 32.4867 56.3198 37.4604 52.2266 40.1009C51.9412 40.285 51.7687 40.6015 51.7687 40.9412V41.324C51.7687 41.7747 52.0702 42.1697 52.5049 42.2886C62.7409 45.088 70.1103 53.7577 70.1103 63.9209C70.1103 64.1104 70.0321 64.411 69.7553 64.8277C69.4819 65.2394 69.0513 65.7081 68.4492 66.212C67.2456 67.2194 65.4564 68.2852 63.1899 69.2588C58.6634 71.2033 52.3741 72.7201 45.4162 72.7201C38.4787 72.7201 32.1957 71.0067 27.661 68.9582C25.3917 67.933 23.5891 66.837 22.3721 65.8542C21.7619 65.3614 21.3246 64.9176 21.0488 64.5475C20.7558 64.1544 20.7251 63.9522 20.7251 63.9209C20.7251 53.7587 28.095 45.0896 38.3305 42.2894Z" fill="white" stroke="#202058" stroke-width="2" stroke-linejoin="round"/>
<g filter="url(#filter0_d)">
<path d="M78.0972 75.8279C78.6067 76.1232 79.1974 76.2477 79.7827 76.1832C80.3681 76.1187 80.9174 75.8685 81.3504 75.4693C81.7823 75.0876 82.0812 74.578 82.2036 74.0147C82.326 73.4513 82.2655 72.8637 82.0308 72.3371L79.3868 66.2628C79.342 66.1586 79.331 66.0429 79.3554 65.932C79.3799 65.8212 79.4384 65.7208 79.5229 65.645L84.3033 61.3874C84.6949 61.0118 84.9656 60.528 85.0811 59.9978C85.1965 59.4677 85.1513 58.9151 84.9514 58.4107C84.7467 57.9124 84.3959 57.4877 83.9451 57.1927C83.4943 56.8977 82.9647 56.7462 82.4262 56.7582H77.0258C76.9205 56.7583 76.8174 56.7274 76.7295 56.6694C76.6416 56.6114 76.5726 56.5289 76.5311 56.432L73.6279 49.701L73.5998 49.6406C73.3632 49.1771 73.0017 48.7889 72.5562 48.5199C72.1107 48.2508 71.5989 48.1116 71.0785 48.1179C70.5582 48.1242 70.0499 48.2757 69.611 48.5555C69.1722 48.8352 68.8202 49.232 68.5948 49.701L65.6851 56.4299C65.6433 56.5269 65.5739 56.6095 65.4856 56.6675C65.3973 56.7254 65.2939 56.7562 65.1883 56.7561H59.7879C59.2513 56.743 58.7234 56.8929 58.2738 57.186C57.8241 57.4791 57.4739 57.9016 57.2692 58.3978C57.0658 58.9126 57.0228 59.4768 57.1458 60.0165C57.2687 60.5562 57.552 61.0461 57.9583 61.422L62.6976 65.645C62.7827 65.7204 62.8416 65.8208 62.8661 65.9318C62.8905 66.0428 62.8792 66.1587 62.8337 66.2628L60.1919 72.3436C59.9571 72.8705 59.8965 73.4585 60.0188 74.0222C60.1412 74.5859 60.4402 75.0959 60.8723 75.478C61.3054 75.8769 61.8547 76.1268 62.44 76.1913C63.0253 76.2558 63.6159 76.1315 64.1255 75.8366L70.8457 72.052C70.9264 72.0064 71.0175 71.9824 71.1103 71.9824C71.203 71.9824 71.2942 72.0064 71.3749 72.052L78.0972 75.8279Z" fill="#3434FF" fill-opacity="0.01"/>
</g>
<path d="M78.0972 75.8279C78.6067 76.1232 79.1974 76.2477 79.7827 76.1832C80.3681 76.1187 80.9174 75.8685 81.3504 75.4693C81.7823 75.0876 82.0812 74.578 82.2036 74.0147C82.326 73.4513 82.2655 72.8637 82.0308 72.3371L79.3868 66.2628C79.342 66.1586 79.331 66.0429 79.3554 65.932C79.3799 65.8212 79.4384 65.7208 79.5229 65.645L84.3033 61.3874C84.6949 61.0118 84.9656 60.528 85.0811 59.9978C85.1965 59.4677 85.1513 58.9151 84.9514 58.4107C84.7467 57.9124 84.3959 57.4877 83.9451 57.1927C83.4943 56.8977 82.9647 56.7462 82.4262 56.7582H77.0258C76.9205 56.7583 76.8174 56.7274 76.7295 56.6694C76.6416 56.6114 76.5726 56.5289 76.5311 56.432L73.6279 49.701L73.5998 49.6406C73.3632 49.1771 73.0017 48.7889 72.5562 48.5199C72.1107 48.2508 71.5989 48.1116 71.0785 48.1179C70.5582 48.1242 70.0499 48.2757 69.611 48.5555C69.1722 48.8352 68.8202 49.232 68.5948 49.701L65.6851 56.4299C65.6433 56.5269 65.5739 56.6095 65.4856 56.6675C65.3973 56.7254 65.2939 56.7562 65.1883 56.7561H59.7879C59.2513 56.743 58.7234 56.8929 58.2738 57.186C57.8241 57.4791 57.4739 57.9016 57.2692 58.3978C57.0658 58.9126 57.0228 59.4768 57.1458 60.0165C57.2687 60.5562 57.552 61.0461 57.9583 61.422L62.6976 65.645C62.7827 65.7204 62.8416 65.8208 62.8661 65.9318C62.8905 66.0428 62.8792 66.1587 62.8337 66.2628L60.1919 72.3436C59.9571 72.8705 59.8965 73.4585 60.0188 74.0222C60.1412 74.5859 60.4402 75.0959 60.8723 75.478C61.3054 75.8769 61.8547 76.1268 62.44 76.1913C63.0253 76.2558 63.6159 76.1315 64.1255 75.8366L70.8457 72.052C70.9264 72.0064 71.0175 71.9824 71.1103 71.9824C71.203 71.9824 71.2942 72.0064 71.3749 72.052L78.0972 75.8279Z" fill="#3434FF"/>
<defs>
<filter id="filter0_d" x="52.0771" y="46.1177" width="38.0664" height="38.0902" filterUnits="userSpaceOnUse" color-interpolation-filters="sRGB">
<feFlood flood-opacity="0" result="BackgroundImageFix"/>
<feColorMatrix in="SourceAlpha" type="matrix" values="0 0 0 0 0 0 0 0 0 0 0 0 0 0 0 0 0 0 127 0"/>
<feOffset dy="3"/>
<feGaussianBlur stdDeviation="2.5"/>
<feColorMatrix type="matrix" values="0 0 0 0 0.203922 0 0 0 0 0.203922 0 0 0 0 1 0 0 0 0.25 0"/>
<feBlend mode="normal" in2="BackgroundImageFix" result="effect1_dropShadow"/>
<feBlend mode="normal" in="SourceGraphic" in2="effect1_dropShadow" result="shape"/>
</filter>
</defs>
</svg>
