<svg width="95" height="95" viewBox="0 0 95 95" fill="none" xmlns="http://www.w3.org/2000/svg">
<g clip-path="url(#clip0)">
<path d="M48.0002 78.6303C68.5702 78.6303 85.2455 61.955 85.2455 41.385C85.2455 20.815 68.5702 4.1397 48.0002 4.1397C27.4302 4.1397 10.7549 20.815 10.7549 41.385C10.7549 61.955 27.4302 78.6303 48.0002 78.6303Z" fill="#F6F6FF"/>
<path d="M47.792 69.1201V58.8182" stroke="#202058" stroke-width="2"/>
<path d="M22.1416 55.9719L31.0633 50.8209" stroke="#202058" stroke-width="2"/>
<path d="M47.9998 60.1959C58.389 60.1959 66.8111 51.7738 66.8111 41.3846C66.8111 30.9954 58.389 22.5733 47.9998 22.5733C37.6106 22.5733 29.1885 30.9954 29.1885 41.3846C29.1885 51.7738 37.6106 60.1959 47.9998 60.1959Z" fill="white" stroke="#202058" stroke-width="2"/>
<g filter="url(#filter0_d)">
<path d="M16.3019 70.7054C21.9915 70.7054 26.6038 66.0931 26.6038 60.4035C26.6038 54.7139 21.9915 50.1016 16.3019 50.1016C10.6123 50.1016 6 54.7139 6 60.4035C6 66.0931 10.6123 70.7054 16.3019 70.7054Z" fill="#3434FF" fill-opacity="0.01"/>
</g>
<path d="M16.3019 70.7054C21.9915 70.7054 26.6038 66.0931 26.6038 60.4035C26.6038 54.7139 21.9915 50.1016 16.3019 50.1016C10.6123 50.1016 6 54.7139 6 60.4035C6 66.0931 10.6123 70.7054 16.3019 70.7054Z" fill="#3434FF"/>
<path d="M48.7926 91.1017C55.2429 91.1017 60.4719 85.8727 60.4719 79.4224C60.4719 72.9721 55.2429 67.7431 48.7926 67.7431C42.3423 67.7431 37.1133 72.9721 37.1133 79.4224C37.1133 85.8727 42.3423 91.1017 48.7926 91.1017Z" fill="white" stroke="#202058" stroke-width="2"/>
<path d="M33.7912 28.5888L25.0742 19.0794" stroke="#202058" stroke-width="2"/>
<path d="M78.8186 50.6152L66.095 48.4883" stroke="#202058" stroke-width="2"/>
<path d="M60.2334 27.4796L69.7428 18.7627" stroke="#202058" stroke-width="2"/>
<g filter="url(#filter1_d)">
<path d="M63.8492 16.0256C63.8492 20.8399 67.752 24.7426 72.5662 24.7426C77.3805 24.7426 81.2832 20.8399 81.2832 16.0256C81.2832 11.2113 77.3805 7.30861 72.5662 7.30861C67.752 7.30861 63.8492 11.2113 63.8492 16.0256Z" fill="#3434FF" fill-opacity="0.01"/>
</g>
<path d="M63.8492 16.0256C63.8492 20.8399 67.752 24.7426 72.5662 24.7426C77.3805 24.7426 81.2832 20.8399 81.2832 16.0256C81.2832 11.2113 77.3805 7.30861 72.5662 7.30861C67.752 7.30861 63.8492 11.2113 63.8492 16.0256Z" fill="#3434FF"/>
<path d="M81.2824 59.4037C85.5444 59.4037 88.9994 55.9487 88.9994 51.6867C88.9994 47.4247 85.5444 43.9697 81.2824 43.9697C77.0204 43.9697 73.5654 47.4247 73.5654 51.6867C73.5654 55.9487 77.0204 59.4037 81.2824 59.4037Z" fill="white" stroke="#202058" stroke-width="2"/>
<g filter="url(#filter2_d)">
<path d="M56.1962 48.9565C56.1962 50.111 52.5264 52.0825 47.9995 52.0825C43.4726 52.0825 39.8037 49.8488 39.8037 48.9565C39.8037 44.8033 43.4735 41.4355 48.0004 41.4355C52.5273 41.4355 56.1962 44.8033 56.1962 48.9565Z" fill="#3434FF" fill-opacity="0.01"/>
<path d="M53.0427 35.7284C53.0427 38.5133 50.7857 40.7702 48.0008 40.7702C45.2168 40.7702 42.959 38.5133 42.959 35.7284C42.959 32.9435 45.2159 30.6865 48.0008 30.6865C50.7848 30.6865 53.0427 32.9435 53.0427 35.7284Z" fill="#3434FF" fill-opacity="0.01"/>
</g>
<path d="M56.1962 48.9565C56.1962 50.111 52.5264 52.0825 47.9995 52.0825C43.4726 52.0825 39.8037 49.8488 39.8037 48.9565C39.8037 44.8033 43.4735 41.4355 48.0004 41.4355C52.5273 41.4355 56.1962 44.8033 56.1962 48.9565Z" fill="#3434FF"/>
<path d="M53.0427 35.7284C53.0427 38.5133 50.7857 40.7702 48.0008 40.7702C45.2168 40.7702 42.959 38.5133 42.959 35.7284C42.959 32.9435 45.2159 30.6865 48.0008 30.6865C50.7848 30.6865 53.0427 32.9435 53.0427 35.7284Z" fill="#3434FF"/>
<path d="M20.0909 22.1582C25.1051 22.1582 29.17 18.0934 29.17 13.0791C29.17 8.06483 25.1051 3.99996 20.0909 3.99996C15.0766 3.99996 11.0117 8.06483 11.0117 13.0791C11.0117 18.0934 15.0766 22.1582 20.0909 22.1582Z" fill="white" stroke="#202058" stroke-width="2"/>
</g>
<defs>
<filter id="filter0_d" x="-2" y="46.1016" width="36.6038" height="36.6038" filterUnits="userSpaceOnUse" color-interpolation-filters="sRGB">
<feFlood flood-opacity="0" result="BackgroundImageFix"/>
<feColorMatrix in="SourceAlpha" type="matrix" values="0 0 0 0 0 0 0 0 0 0 0 0 0 0 0 0 0 0 127 0"/>
<feOffset dy="4"/>
<feGaussianBlur stdDeviation="4"/>
<feColorMatrix type="matrix" values="0 0 0 0 0.203922 0 0 0 0 0.203922 0 0 0 0 1 0 0 0 0.31 0"/>
<feBlend mode="normal" in2="BackgroundImageFix" result="effect1_dropShadow"/>
<feBlend mode="normal" in="SourceGraphic" in2="effect1_dropShadow" result="shape"/>
</filter>
<filter id="filter1_d" x="55.8491" y="3.30861" width="33.434" height="33.434" filterUnits="userSpaceOnUse" color-interpolation-filters="sRGB">
<feFlood flood-opacity="0" result="BackgroundImageFix"/>
<feColorMatrix in="SourceAlpha" type="matrix" values="0 0 0 0 0 0 0 0 0 0 0 0 0 0 0 0 0 0 127 0"/>
<feOffset dy="4"/>
<feGaussianBlur stdDeviation="4"/>
<feColorMatrix type="matrix" values="0 0 0 0 0.203922 0 0 0 0 0.203922 0 0 0 0 1 0 0 0 0.31 0"/>
<feBlend mode="normal" in2="BackgroundImageFix" result="effect1_dropShadow"/>
<feBlend mode="normal" in="SourceGraphic" in2="effect1_dropShadow" result="shape"/>
</filter>
<filter id="filter2_d" x="35.8037" y="29.6865" width="24.3925" height="29.396" filterUnits="userSpaceOnUse" color-interpolation-filters="sRGB">
<feFlood flood-opacity="0" result="BackgroundImageFix"/>
<feColorMatrix in="SourceAlpha" type="matrix" values="0 0 0 0 0 0 0 0 0 0 0 0 0 0 0 0 0 0 127 0"/>
<feOffset dy="3"/>
<feGaussianBlur stdDeviation="2"/>
<feColorMatrix type="matrix" values="0 0 0 0 0.203922 0 0 0 0 0.203922 0 0 0 0 1 0 0 0 0.26 0"/>
<feBlend mode="normal" in2="BackgroundImageFix" result="effect1_dropShadow"/>
<feBlend mode="normal" in="SourceGraphic" in2="effect1_dropShadow" result="shape"/>
</filter>
<clipPath id="clip0">
<rect width="95" height="95" fill="white"/>
</clipPath>
</defs>
</svg>
