<svg width="93" height="95" viewBox="0 0 93 95" fill="none" xmlns="http://www.w3.org/2000/svg">
<g clip-path="url(#clip0)">
<path d="M43.1913 85.1452C65.2274 85.1452 83.0913 67.2814 83.0913 45.2452C83.0913 23.2091 65.2274 5.34521 43.1913 5.34521C21.1551 5.34521 3.29126 23.2091 3.29126 45.2452C3.29126 67.2814 21.1551 85.1452 43.1913 85.1452Z" fill="#F6F6FF"/>
<path d="M61.0113 15.5854H17.8113C11.7361 15.5854 6.81128 20.5103 6.81128 26.5854V51.3054C6.81128 57.3806 11.7361 62.3054 17.8113 62.3054H61.0113C67.0864 62.3054 72.0113 57.3806 72.0113 51.3054V26.5854C72.0113 20.5103 67.0864 15.5854 61.0113 15.5854Z" fill="white" stroke="#202058" stroke-width="2"/>
<g filter="url(#filter0_d)">
<path d="M67.7313 22.3051H24.5312C18.4561 22.3051 13.5312 27.23 13.5312 33.3051V61.3851C13.5312 67.4602 18.4561 72.3851 24.5312 72.3851H67.7313C73.8064 72.3851 78.7313 67.4602 78.7313 61.3851V33.3051C78.7313 27.23 73.8064 22.3051 67.7313 22.3051Z" fill="white" fill-opacity="0.01"/>
<g filter="url(#filter1_d)">
<path d="M81.0142 77.38C80.2521 78.2364 79.3174 78.9218 78.2714 79.3911C77.2254 79.8605 76.0919 80.1031 74.9455 80.1031C73.799 80.1031 72.6656 79.8605 71.6196 79.3911C70.5737 78.9218 69.639 78.2364 68.8768 77.38C68.4547 77.4055 68.0313 77.3962 67.6108 77.3522C67.5501 77.3462 67.4888 77.3528 67.4308 77.3716C67.3729 77.3905 67.3194 77.4211 67.2739 77.4616C67.2289 77.5026 67.1929 77.5525 67.1684 77.6081C67.1439 77.6637 67.1312 77.7239 67.1313 77.7847V87.9164C67.1313 88.2264 67.2143 88.5307 67.3717 88.7978C67.529 89.0649 67.7551 89.285 68.0262 89.4353C68.2974 89.5856 68.6037 89.6606 68.9136 89.6524C69.2235 89.6443 69.5256 89.5533 69.7884 89.389L74.9463 86.1658L80.1043 89.3908C80.3673 89.5552 80.6696 89.6461 80.9796 89.6542C81.2896 89.6622 81.5962 89.5871 81.8674 89.4366C82.1386 89.2861 82.3644 89.0658 82.5217 88.7984C82.6789 88.5311 82.7616 88.2265 82.7613 87.9164V77.7899C82.7611 77.7292 82.7484 77.6693 82.7237 77.6139C82.699 77.5585 82.6629 77.5089 82.618 77.4682C82.573 77.4275 82.5202 77.3967 82.4626 77.3776C82.4051 77.3585 82.3441 77.3516 82.2837 77.3574C81.862 77.4006 81.4373 77.4081 81.0142 77.38Z" fill="#3434FF" fill-opacity="0.01"/>
<path d="M86.7416 57.8497C87.0455 56.8885 87.0797 55.8624 86.8405 54.8832C86.6013 53.904 86.0977 53.0093 85.3849 52.2966C84.672 51.5839 83.7771 51.0806 82.7979 50.8416C81.8186 50.6026 80.7925 50.637 79.8314 50.9412C79.3668 50.0468 78.6655 49.2972 77.8041 48.774C76.9426 48.2508 75.9541 47.9741 74.9462 47.9741C73.9383 47.9741 72.9498 48.2508 72.0884 48.774C71.2269 49.2972 70.5257 50.0468 70.061 50.9412C69.1 50.6368 68.0739 50.6022 67.0945 50.8412C66.1152 51.0801 65.2204 51.5834 64.5076 52.2962C63.7948 53.009 63.2914 53.9039 63.0525 54.8832C62.8135 55.8625 62.8481 56.8887 63.1525 57.8497C62.2581 58.3141 61.5084 59.0151 60.9851 59.8764C60.4618 60.7378 60.1851 61.7262 60.1851 62.734C60.1851 63.7418 60.4618 64.7303 60.9851 65.5916C61.5084 66.4529 62.2581 67.154 63.1525 67.6184C62.8482 68.5796 62.8137 69.6059 63.0527 70.5854C63.2918 71.5649 63.7953 72.46 64.5082 73.1729C65.2211 73.8858 66.1162 74.3893 67.0957 74.6284C68.0752 74.8674 69.1015 74.8329 70.0627 74.5286C70.527 75.4234 71.2281 76.1736 72.0896 76.6972C72.9511 77.2208 73.9398 77.4977 74.948 77.4977C75.9561 77.4977 76.9448 77.2208 77.8063 76.6972C78.6678 76.1736 79.3689 75.4234 79.8332 74.5286C80.7942 74.833 81.8203 74.8676 82.7996 74.6286C83.7789 74.3897 84.6738 73.8863 85.3866 73.1735C86.0994 72.4607 86.6027 71.5659 86.8417 70.5866C87.0806 69.6072 87.046 68.5811 86.7416 67.6201C87.636 67.1555 88.3857 66.4542 88.9089 65.5927C89.4321 64.7313 89.7087 63.7428 89.7087 62.7349C89.7087 61.727 89.4321 60.7385 88.9089 59.877C88.3857 59.0156 87.636 58.3143 86.7416 57.8497ZM71.4277 68.2696C71.2835 68.3525 71.117 68.3882 70.9515 68.3717C70.786 68.3552 70.6299 68.2873 70.5048 68.1776C70.3798 68.0679 70.2923 67.9219 70.2544 67.7599C70.2165 67.598 70.2303 67.4283 70.2937 67.2745L71.6466 64.1919C71.6816 64.1114 71.6914 64.0222 71.6746 63.936C71.6579 63.8498 71.6154 63.7707 71.5528 63.7092L69.1214 61.323C69.0068 61.2214 68.9263 61.0868 68.8911 60.9377C68.8559 60.7886 68.8676 60.6322 68.9246 60.49C68.9816 60.3478 69.0812 60.2267 69.2097 60.1433C69.3382 60.0599 69.4893 60.0182 69.6424 60.024H72.4055C72.4882 60.0241 72.5692 60.0007 72.6391 59.9564C72.7089 59.9121 72.7646 59.8488 72.7997 59.7739L74.2516 56.6566C74.3191 56.5249 74.4216 56.4144 74.5478 56.3373C74.674 56.2602 74.8191 56.2194 74.9671 56.2194C75.115 56.2194 75.2601 56.2602 75.3863 56.3373C75.5126 56.4144 75.6151 56.5249 75.6826 56.6566L77.1223 59.7826C77.157 59.8573 77.2124 59.9206 77.282 59.9649C77.3515 60.0092 77.4323 60.0327 77.5147 60.0326H80.2778C80.4309 60.0269 80.582 60.0686 80.7105 60.152C80.839 60.2354 80.9386 60.3565 80.9956 60.4987C81.0527 60.6409 81.0644 60.7973 81.0291 60.9464C80.9939 61.0955 80.9134 61.23 80.7988 61.3317L78.3674 63.7178C78.3048 63.7794 78.2623 63.8585 78.2456 63.9447C78.2289 64.0309 78.2386 64.1201 78.2737 64.2006L79.6178 67.2849C79.6813 67.4387 79.695 67.6084 79.6571 67.7704C79.6193 67.9323 79.5317 68.0784 79.4067 68.1881C79.2817 68.2978 79.1255 68.3656 78.96 68.3821C78.7945 68.3986 78.628 68.3629 78.4838 68.2801L75.165 66.4131C75.0998 66.3765 75.0263 66.3572 74.9514 66.3572C74.8766 66.3572 74.803 66.3765 74.7378 66.4131L71.4277 68.2696Z" fill="#3434FF" fill-opacity="0.01"/>
</g>
</g>
<path d="M67.7313 22.3051H24.5312C18.4561 22.3051 13.5312 27.23 13.5312 33.3051V61.3851C13.5312 67.4602 18.4561 72.3851 24.5312 72.3851H67.7313C73.8064 72.3851 78.7313 67.4602 78.7313 61.3851V33.3051C78.7313 27.23 73.8064 22.3051 67.7313 22.3051Z" fill="white" stroke="#202058" stroke-width="2"/>
<path d="M59.5712 29.7055H33.5312C32.1395 29.7055 31.0112 30.8338 31.0112 32.2255C31.0112 33.6173 32.1395 34.7455 33.5312 34.7455H59.5712C60.963 34.7455 62.0912 33.6173 62.0912 32.2255C62.0912 30.8338 60.963 29.7055 59.5712 29.7055Z" fill="#B0B0D0"/>
<path d="M65.4513 38.9448H26.8113C25.8835 38.9448 25.1313 39.697 25.1313 40.6248C25.1313 41.5526 25.8835 42.3048 26.8113 42.3048H65.4513C66.3792 42.3048 67.1313 41.5526 67.1313 40.6248C67.1313 39.697 66.3792 38.9448 65.4513 38.9448Z" fill="#DFDFEB"/>
<path d="M56.2112 45.6655H36.8912C35.9633 45.6655 35.2112 46.4177 35.2112 47.3455C35.2112 48.2734 35.9633 49.0255 36.8912 49.0255H56.2112C57.139 49.0255 57.8912 48.2734 57.8912 47.3455C57.8912 46.4177 57.139 45.6655 56.2112 45.6655Z" fill="#DFDFEB"/>
<path d="M40.2512 62.4653H25.1312C24.2033 62.4653 23.4512 63.2175 23.4512 64.1453C23.4512 65.0732 24.2033 65.8253 25.1312 65.8253H40.2512C41.179 65.8253 41.9312 65.0732 41.9312 64.1453C41.9312 63.2175 41.179 62.4653 40.2512 62.4653Z" fill="#C4C4D2"/>
<path d="M67.1313 62.4653H52.0113C51.0835 62.4653 50.3313 63.2175 50.3313 64.1453C50.3313 65.0732 51.0835 65.8253 52.0113 65.8253H67.1313C68.0591 65.8253 68.8113 65.0732 68.8113 64.1453C68.8113 63.2175 68.0591 62.4653 67.1313 62.4653Z" fill="#C4C4D2"/>
<g filter="url(#filter2_d)">
<path d="M81.0142 77.38C80.2521 78.2364 79.3174 78.9218 78.2714 79.3911C77.2254 79.8605 76.0919 80.1031 74.9455 80.1031C73.799 80.1031 72.6656 79.8605 71.6196 79.3911C70.5737 78.9218 69.639 78.2364 68.8768 77.38C68.4547 77.4055 68.0313 77.3962 67.6108 77.3522C67.5501 77.3462 67.4888 77.3528 67.4308 77.3716C67.3729 77.3905 67.3194 77.4211 67.2739 77.4616C67.2289 77.5026 67.1929 77.5525 67.1684 77.6081C67.1439 77.6637 67.1312 77.7239 67.1313 77.7847V87.9164C67.1313 88.2264 67.2143 88.5307 67.3717 88.7978C67.529 89.0649 67.7551 89.285 68.0262 89.4353C68.2974 89.5856 68.6037 89.6606 68.9136 89.6524C69.2235 89.6443 69.5256 89.5533 69.7884 89.389L74.9463 86.1658L80.1043 89.3908C80.3673 89.5552 80.6696 89.6461 80.9796 89.6542C81.2896 89.6622 81.5962 89.5871 81.8674 89.4366C82.1386 89.2861 82.3644 89.0658 82.5217 88.7984C82.6789 88.5311 82.7616 88.2265 82.7613 87.9164V77.7899C82.7611 77.7292 82.7484 77.6693 82.7237 77.6139C82.699 77.5585 82.6629 77.5089 82.618 77.4682C82.573 77.4275 82.5202 77.3967 82.4626 77.3776C82.4051 77.3585 82.3441 77.3516 82.2837 77.3574C81.862 77.4006 81.4373 77.4081 81.0142 77.38Z" fill="#3434FF" fill-opacity="0.01"/>
<path d="M75.1694 71.0756C79.3624 71.0756 82.7615 67.6766 82.7615 63.4836C82.7615 59.2906 79.3624 55.8916 75.1694 55.8916C70.9765 55.8916 67.5774 59.2906 67.5774 63.4836C67.5774 67.6766 70.9765 71.0756 75.1694 71.0756Z" fill="white" fill-opacity="0.01"/>
<path d="M86.7416 57.8497C87.0455 56.8885 87.0797 55.8624 86.8405 54.8832C86.6013 53.904 86.0977 53.0093 85.3849 52.2966C84.672 51.5839 83.7771 51.0806 82.7979 50.8416C81.8186 50.6026 80.7925 50.637 79.8314 50.9412C79.3668 50.0468 78.6655 49.2972 77.8041 48.774C76.9426 48.2508 75.9541 47.9741 74.9462 47.9741C73.9383 47.9741 72.9498 48.2508 72.0884 48.774C71.2269 49.2972 70.5257 50.0468 70.061 50.9412C69.1 50.6368 68.0739 50.6022 67.0945 50.8412C66.1152 51.0801 65.2204 51.5834 64.5076 52.2962C63.7948 53.009 63.2914 53.9039 63.0525 54.8832C62.8135 55.8625 62.8481 56.8887 63.1525 57.8497C62.2581 58.3141 61.5084 59.0151 60.9851 59.8764C60.4618 60.7378 60.1851 61.7262 60.1851 62.734C60.1851 63.7418 60.4618 64.7303 60.9851 65.5916C61.5084 66.4529 62.2581 67.154 63.1525 67.6184C62.8482 68.5796 62.8137 69.6059 63.0527 70.5854C63.2918 71.5649 63.7953 72.46 64.5082 73.1729C65.2211 73.8858 66.1162 74.3893 67.0957 74.6284C68.0752 74.8674 69.1015 74.8329 70.0627 74.5286C70.527 75.4234 71.2281 76.1736 72.0896 76.6972C72.9511 77.2208 73.9398 77.4977 74.948 77.4977C75.9561 77.4977 76.9448 77.2208 77.8063 76.6972C78.6678 76.1736 79.3689 75.4234 79.8332 74.5286C80.7942 74.833 81.8203 74.8676 82.7996 74.6286C83.7789 74.3897 84.6738 73.8863 85.3866 73.1735C86.0994 72.4607 86.6027 71.5659 86.8417 70.5866C87.0806 69.6072 87.046 68.5811 86.7416 67.6201C87.636 67.1555 88.3857 66.4542 88.9089 65.5927C89.4321 64.7313 89.7087 63.7428 89.7087 62.7349C89.7087 61.727 89.4321 60.7385 88.9089 59.877C88.3857 59.0156 87.636 58.3143 86.7416 57.8497ZM71.4277 68.2696C71.2835 68.3525 71.117 68.3882 70.9515 68.3717C70.786 68.3552 70.6299 68.2873 70.5048 68.1776C70.3798 68.0679 70.2923 67.9219 70.2544 67.7599C70.2165 67.598 70.2303 67.4283 70.2937 67.2745L71.6466 64.1919C71.6816 64.1114 71.6914 64.0222 71.6746 63.936C71.6579 63.8498 71.6154 63.7707 71.5528 63.7092L69.1214 61.323C69.0068 61.2214 68.9263 61.0868 68.8911 60.9377C68.8559 60.7886 68.8676 60.6322 68.9246 60.49C68.9816 60.3478 69.0812 60.2267 69.2097 60.1433C69.3382 60.0599 69.4893 60.0182 69.6424 60.024H72.4055C72.4882 60.0241 72.5692 60.0007 72.6391 59.9564C72.7089 59.9121 72.7646 59.8488 72.7997 59.7739L74.2516 56.6566C74.3191 56.5249 74.4216 56.4144 74.5478 56.3373C74.674 56.2602 74.8191 56.2194 74.9671 56.2194C75.115 56.2194 75.2601 56.2602 75.3863 56.3373C75.5126 56.4144 75.6151 56.5249 75.6826 56.6566L77.1223 59.7826C77.157 59.8573 77.2124 59.9206 77.282 59.9649C77.3515 60.0092 77.4323 60.0327 77.5147 60.0326H80.2778C80.4309 60.0269 80.582 60.0686 80.7105 60.152C80.839 60.2354 80.9386 60.3565 80.9956 60.4987C81.0527 60.6409 81.0644 60.7973 81.0291 60.9464C80.9939 61.0955 80.9134 61.23 80.7988 61.3317L78.3674 63.7178C78.3048 63.7794 78.2623 63.8585 78.2456 63.9447C78.2289 64.0309 78.2386 64.1201 78.2737 64.2006L79.6178 67.2849C79.6813 67.4387 79.695 67.6084 79.6571 67.7704C79.6193 67.9323 79.5317 68.0784 79.4067 68.1881C79.2817 68.2978 79.1255 68.3656 78.96 68.3821C78.7945 68.3986 78.628 68.3629 78.4838 68.2801L75.165 66.4131C75.0998 66.3765 75.0263 66.3572 74.9514 66.3572C74.8766 66.3572 74.803 66.3765 74.7378 66.4131L71.4277 68.2696Z" fill="#3434FF" fill-opacity="0.01"/>
</g>
<path d="M81.0142 77.38C80.2521 78.2364 79.3174 78.9218 78.2714 79.3911C77.2254 79.8605 76.0919 80.1031 74.9455 80.1031C73.799 80.1031 72.6656 79.8605 71.6196 79.3911C70.5737 78.9218 69.639 78.2364 68.8768 77.38C68.4547 77.4055 68.0313 77.3962 67.6108 77.3522C67.5501 77.3462 67.4888 77.3528 67.4308 77.3716C67.3729 77.3905 67.3194 77.4211 67.2739 77.4616C67.2289 77.5026 67.1929 77.5525 67.1684 77.6081C67.1439 77.6637 67.1312 77.7239 67.1313 77.7847V87.9164C67.1313 88.2264 67.2143 88.5307 67.3717 88.7978C67.529 89.0649 67.7551 89.285 68.0262 89.4353C68.2974 89.5856 68.6037 89.6606 68.9136 89.6524C69.2235 89.6443 69.5256 89.5533 69.7884 89.389L74.9463 86.1658L80.1043 89.3908C80.3673 89.5552 80.6696 89.6461 80.9796 89.6542C81.2896 89.6622 81.5962 89.5871 81.8674 89.4366C82.1386 89.2861 82.3644 89.0658 82.5217 88.7984C82.6789 88.5311 82.7616 88.2265 82.7613 87.9164V77.7899C82.7611 77.7292 82.7484 77.6693 82.7237 77.6139C82.699 77.5585 82.6629 77.5089 82.618 77.4682C82.573 77.4275 82.5202 77.3967 82.4626 77.3776C82.4051 77.3585 82.3441 77.3516 82.2837 77.3574C81.862 77.4006 81.4373 77.4081 81.0142 77.38Z" fill="#3434FF"/>
<path d="M75.1694 71.0756C79.3624 71.0756 82.7615 67.6766 82.7615 63.4836C82.7615 59.2906 79.3624 55.8916 75.1694 55.8916C70.9765 55.8916 67.5774 59.2906 67.5774 63.4836C67.5774 67.6766 70.9765 71.0756 75.1694 71.0756Z" fill="white"/>
<path d="M86.7416 57.8497C87.0455 56.8885 87.0797 55.8624 86.8405 54.8832C86.6013 53.904 86.0977 53.0093 85.3849 52.2966C84.672 51.5839 83.7771 51.0806 82.7979 50.8416C81.8186 50.6026 80.7925 50.637 79.8314 50.9412C79.3668 50.0468 78.6655 49.2972 77.8041 48.774C76.9426 48.2508 75.9541 47.9741 74.9462 47.9741C73.9383 47.9741 72.9498 48.2508 72.0884 48.774C71.2269 49.2972 70.5257 50.0468 70.061 50.9412C69.1 50.6368 68.0739 50.6022 67.0945 50.8412C66.1152 51.0801 65.2204 51.5834 64.5076 52.2962C63.7948 53.009 63.2914 53.9039 63.0525 54.8832C62.8135 55.8625 62.8481 56.8887 63.1525 57.8497C62.2581 58.3141 61.5084 59.0151 60.9851 59.8764C60.4618 60.7378 60.1851 61.7262 60.1851 62.734C60.1851 63.7418 60.4618 64.7303 60.9851 65.5916C61.5084 66.4529 62.2581 67.154 63.1525 67.6184C62.8482 68.5796 62.8137 69.6059 63.0527 70.5854C63.2918 71.5649 63.7953 72.46 64.5082 73.1729C65.2211 73.8858 66.1162 74.3893 67.0957 74.6284C68.0752 74.8674 69.1015 74.8329 70.0627 74.5286C70.527 75.4234 71.2281 76.1736 72.0896 76.6972C72.9511 77.2208 73.9398 77.4977 74.948 77.4977C75.9561 77.4977 76.9448 77.2208 77.8063 76.6972C78.6678 76.1736 79.3689 75.4234 79.8332 74.5286C80.7942 74.833 81.8203 74.8676 82.7996 74.6286C83.7789 74.3897 84.6738 73.8863 85.3866 73.1735C86.0994 72.4607 86.6027 71.5659 86.8417 70.5866C87.0806 69.6072 87.046 68.5811 86.7416 67.6201C87.636 67.1555 88.3857 66.4542 88.9089 65.5927C89.4321 64.7313 89.7087 63.7428 89.7087 62.7349C89.7087 61.727 89.4321 60.7385 88.9089 59.877C88.3857 59.0156 87.636 58.3143 86.7416 57.8497ZM71.4277 68.2696C71.2835 68.3525 71.117 68.3882 70.9515 68.3717C70.786 68.3552 70.6299 68.2873 70.5048 68.1776C70.3798 68.0679 70.2923 67.9219 70.2544 67.7599C70.2165 67.598 70.2303 67.4283 70.2937 67.2745L71.6466 64.1919C71.6816 64.1114 71.6914 64.0222 71.6746 63.936C71.6579 63.8498 71.6154 63.7707 71.5528 63.7092L69.1214 61.323C69.0068 61.2214 68.9263 61.0868 68.8911 60.9377C68.8559 60.7886 68.8676 60.6322 68.9246 60.49C68.9816 60.3478 69.0812 60.2267 69.2097 60.1433C69.3382 60.0599 69.4893 60.0182 69.6424 60.024H72.4055C72.4882 60.0241 72.5692 60.0007 72.6391 59.9564C72.7089 59.9121 72.7646 59.8488 72.7997 59.7739L74.2516 56.6566C74.3191 56.5249 74.4216 56.4144 74.5478 56.3373C74.674 56.2602 74.8191 56.2194 74.9671 56.2194C75.115 56.2194 75.2601 56.2602 75.3863 56.3373C75.5126 56.4144 75.6151 56.5249 75.6826 56.6566L77.1223 59.7826C77.157 59.8573 77.2124 59.9206 77.282 59.9649C77.3515 60.0092 77.4323 60.0327 77.5147 60.0326H80.2778C80.4309 60.0269 80.582 60.0686 80.7105 60.152C80.839 60.2354 80.9386 60.3565 80.9956 60.4987C81.0527 60.6409 81.0644 60.7973 81.0291 60.9464C80.9939 61.0955 80.9134 61.23 80.7988 61.3317L78.3674 63.7178C78.3048 63.7794 78.2623 63.8585 78.2456 63.9447C78.2289 64.0309 78.2386 64.1201 78.2737 64.2006L79.6178 67.2849C79.6813 67.4387 79.695 67.6084 79.6571 67.7704C79.6193 67.9323 79.5317 68.0784 79.4067 68.1881C79.2817 68.2978 79.1255 68.3656 78.96 68.3821C78.7945 68.3986 78.628 68.3629 78.4838 68.2801L75.165 66.4131C75.0998 66.3765 75.0263 66.3572 74.9514 66.3572C74.8766 66.3572 74.803 66.3765 74.7378 66.4131L71.4277 68.2696Z" fill="#3434FF"/>
</g>
<defs>
<filter id="filter0_d" x="7.53125" y="18.3051" width="88.1774" height="79.3497" filterUnits="userSpaceOnUse" color-interpolation-filters="sRGB">
<feFlood flood-opacity="0" result="BackgroundImageFix"/>
<feColorMatrix in="SourceAlpha" type="matrix" values="0 0 0 0 0 0 0 0 0 0 0 0 0 0 0 0 0 0 127 0"/>
<feOffset dy="2"/>
<feGaussianBlur stdDeviation="3"/>
<feColorMatrix type="matrix" values="0 0 0 0 0.203922 0 0 0 0 0.203922 0 0 0 0 1 0 0 0 0.17 0"/>
<feBlend mode="normal" in2="BackgroundImageFix" result="effect1_dropShadow"/>
<feBlend mode="normal" in="SourceGraphic" in2="effect1_dropShadow" result="shape"/>
</filter>
<filter id="filter1_d" x="57.1851" y="45.9741" width="35.5236" height="47.6807" filterUnits="userSpaceOnUse" color-interpolation-filters="sRGB">
<feFlood flood-opacity="0" result="BackgroundImageFix"/>
<feColorMatrix in="SourceAlpha" type="matrix" values="0 0 0 0 0 0 0 0 0 0 0 0 0 0 0 0 0 0 127 0"/>
<feOffset dy="1"/>
<feGaussianBlur stdDeviation="1.5"/>
<feColorMatrix type="matrix" values="0 0 0 0 0.203922 0 0 0 0 0.203922 0 0 0 0 1 0 0 0 0.12 0"/>
<feBlend mode="normal" in2="BackgroundImageFix" result="effect1_dropShadow"/>
<feBlend mode="normal" in="SourceGraphic" in2="effect1_dropShadow" result="shape"/>
</filter>
<filter id="filter2_d" x="57.1851" y="45.9741" width="35.5236" height="47.6807" filterUnits="userSpaceOnUse" color-interpolation-filters="sRGB">
<feFlood flood-opacity="0" result="BackgroundImageFix"/>
<feColorMatrix in="SourceAlpha" type="matrix" values="0 0 0 0 0 0 0 0 0 0 0 0 0 0 0 0 0 0 127 0"/>
<feOffset dy="1"/>
<feGaussianBlur stdDeviation="1.5"/>
<feColorMatrix type="matrix" values="0 0 0 0 0.203922 0 0 0 0 0.203922 0 0 0 0 1 0 0 0 0.12 0"/>
<feBlend mode="normal" in2="BackgroundImageFix" result="effect1_dropShadow"/>
<feBlend mode="normal" in="SourceGraphic" in2="effect1_dropShadow" result="shape"/>
</filter>
<clipPath id="clip0">
<rect width="93" height="94" fill="white" transform="translate(0 0.5)"/>
</clipPath>
</defs>
</svg>
