<svg width="96" height="81" viewBox="0 0 96 81" fill="none" xmlns="http://www.w3.org/2000/svg">
<g clip-path="url(#clip0)">
<path d="M3.67676 22.0039V48.6811" stroke="#202058" stroke-width="3" stroke-linecap="round"/>
<path d="M21.2174 29.9258V51.9493C21.2119 53.0134 21.5267 54.0546 22.1208 54.9375C22.7148 55.8204 23.5607 56.5042 24.5485 56.9L45.7658 65.387C47.0309 65.889 48.44 65.889 49.7051 65.387L70.9224 56.9C71.9109 56.5045 72.7578 55.821 73.353 54.9382C73.9483 54.0554 74.2645 53.014 74.2606 51.9493V29.9258" fill="white"/>
<path d="M21.2174 29.9258V51.9493C21.2119 53.0134 21.5267 54.0546 22.1208 54.9375C22.7148 55.8204 23.5607 56.5042 24.5485 56.9L45.7658 65.387C47.0309 65.889 48.44 65.889 49.7051 65.387L70.9224 56.9C71.9109 56.5045 72.7578 55.821 73.353 54.9382C73.9483 54.0554 74.2645 53.014 74.2606 51.9493V29.9258" stroke="#202058" stroke-width="3" stroke-linecap="round"/>
<path d="M47.9866 2.50025C47.8231 2.50009 47.6611 2.53205 47.5099 2.59433L4.75752 20.202C3.07051 20.8968 3.1185 23.3025 4.83187 23.9295L47.0516 39.3788C47.4954 39.5412 47.9824 39.5412 48.4262 39.3788L90.6722 23.9199C92.3822 23.2941 92.4345 20.8948 90.7534 20.1952L48.4651 2.59609C48.3134 2.53299 48.1508 2.50042 47.9866 2.50025Z" fill="white" stroke="#202058" stroke-width="3" stroke-linecap="round"/>
<g filter="url(#filter0_d)">
<path d="M90.4497 54.4808L87.6737 52.2485C87.4579 52.0746 87.2894 51.849 87.1838 51.5927C87.0782 51.3364 87.039 51.0576 87.0696 50.782L87.4548 47.2404C87.5067 46.7701 87.4523 46.2942 87.2956 45.8477C87.1389 45.4013 86.8838 44.9958 86.5494 44.6612C86.2149 44.3265 85.8095 44.0713 85.3631 43.9144C84.9167 43.7575 84.4408 43.7029 83.9705 43.7546L80.4243 44.1352C80.1488 44.1658 79.8701 44.1264 79.6138 44.0208C79.3575 43.9153 79.1319 43.7468 78.9578 43.5311L76.7256 40.7567C76.4198 40.4033 76.0415 40.1199 75.6165 39.9257C75.1915 39.7314 74.7296 39.6309 74.2623 39.6309C73.795 39.6309 73.3332 39.7314 72.9081 39.9257C72.4831 40.1199 72.1048 40.4033 71.799 40.7567L69.5668 43.5311C69.3934 43.7476 69.1679 43.9166 68.9114 44.0222C68.655 44.1279 68.3759 44.1668 68.1003 44.1352L64.5587 43.7546C64.0884 43.7027 63.6124 43.7571 63.166 43.9138C62.7196 44.0705 62.3141 44.3255 61.9794 44.66C61.6448 44.9945 61.3896 45.3999 61.2327 45.8463C61.0758 46.2927 61.0212 46.7686 61.0729 47.2389L61.458 50.7805C61.4894 51.0561 61.4505 51.3351 61.3448 51.5916C61.2392 51.848 61.0703 52.0735 60.8539 52.247L58.075 54.4808C57.7064 54.7768 57.4089 55.1519 57.2045 55.5782C57.0001 56.0045 56.894 56.4713 56.894 56.944C56.894 57.4168 57.0001 57.8836 57.2045 58.3099C57.4089 58.7362 57.7064 59.1113 58.075 59.4073L60.8509 61.6396C61.0672 61.8132 61.236 62.0387 61.3416 62.2951C61.4472 62.5515 61.4863 62.8305 61.455 63.1061L61.0699 66.6477C61.018 67.118 61.0724 67.5939 61.2291 68.0404C61.3858 68.4868 61.6408 68.8923 61.9753 69.2269C62.3098 69.5616 62.7152 69.8168 63.1616 69.9737C63.6079 70.1306 64.0838 70.1852 64.5541 70.1335L68.0973 69.7483C68.3728 69.7177 68.6516 69.7569 68.9079 69.8625C69.1643 69.9681 69.3898 70.1366 69.5638 70.3525L71.799 73.1329C72.0951 73.5015 72.4701 73.799 72.8965 74.0034C73.3228 74.2077 73.7895 74.3138 74.2623 74.3138C74.7351 74.3138 75.2019 74.2077 75.6282 74.0034C76.0545 73.799 76.4295 73.5015 76.7256 73.1329L78.9578 70.357C79.1319 70.1413 79.3575 69.9728 79.6138 69.8673C79.8701 69.7617 80.1488 69.7223 80.4243 69.7529L83.966 70.138C84.4363 70.1899 84.9122 70.1355 85.3586 69.9788C85.8051 69.8221 86.2106 69.5671 86.5452 69.2326C86.8799 68.8981 87.1351 68.4927 87.292 68.0463C87.4489 67.6 87.5035 67.124 87.4517 66.6537L87.0666 63.1106C87.0351 62.835 87.074 62.5559 87.1796 62.2995C87.2853 62.043 87.4542 61.8175 87.6707 61.6441L90.4466 59.4119C90.8152 59.1158 91.1127 58.7408 91.3171 58.3145C91.5215 57.8881 91.6276 57.4214 91.6276 56.9486C91.6276 56.4758 91.5215 56.009 91.3171 55.5827C91.1127 55.1564 90.8152 54.7814 90.4466 54.4853L90.4497 54.4808ZM74.8664 61.5761C74.6344 61.8783 74.341 62.1279 74.0055 62.3084C73.67 62.489 73.3 62.5963 72.92 62.6234C72.5399 62.6505 72.1585 62.5968 71.8007 62.4657C71.443 62.3347 71.1171 62.1293 70.8445 61.8631L67.1534 58.181C67.0091 58.0417 66.8941 57.875 66.8149 57.6907C66.7357 57.5065 66.6941 57.3083 66.6923 57.1078C66.6906 56.9072 66.7288 56.7084 66.8048 56.5227C66.8807 56.3371 66.9928 56.1685 67.1346 56.0267C67.2764 55.8849 67.4451 55.7728 67.6307 55.6968C67.8163 55.6209 68.0152 55.5827 68.2157 55.5844C68.4162 55.5861 68.6144 55.6278 68.7987 55.707C68.9829 55.7861 69.1496 55.9012 69.2889 56.0454L72.6886 59.4451L78.5923 51.5749C78.8327 51.2545 79.1905 51.0427 79.587 50.986C79.7833 50.958 79.9833 50.9689 80.1754 51.0181C80.3675 51.0673 80.5481 51.1539 80.7068 51.2729C80.8654 51.3919 80.9991 51.541 81.1001 51.7116C81.2012 51.8823 81.2676 52.0712 81.2957 52.2675C81.3237 52.4639 81.3128 52.6638 81.2636 52.856C81.2144 53.0481 81.1278 53.2286 81.0088 53.3873L74.8664 61.5761Z" fill="#3434FF" fill-opacity="0.01"/>
</g>
<path d="M74.261 66.395C79.407 66.395 83.5786 62.2234 83.5786 57.0774C83.5786 51.9314 79.407 47.7598 74.261 47.7598C69.115 47.7598 64.9434 51.9314 64.9434 57.0774C64.9434 62.2234 69.115 66.395 74.261 66.395Z" fill="white"/>
<path d="M90.4497 54.4808L87.6737 52.2485C87.4579 52.0746 87.2894 51.849 87.1838 51.5927C87.0782 51.3364 87.039 51.0576 87.0696 50.782L87.4548 47.2404C87.5067 46.7701 87.4523 46.2942 87.2956 45.8477C87.1389 45.4013 86.8838 44.9958 86.5494 44.6612C86.2149 44.3265 85.8095 44.0713 85.3631 43.9144C84.9167 43.7575 84.4408 43.7029 83.9705 43.7546L80.4243 44.1352C80.1488 44.1658 79.8701 44.1264 79.6138 44.0208C79.3575 43.9153 79.1319 43.7468 78.9578 43.5311L76.7256 40.7567C76.4198 40.4033 76.0415 40.1199 75.6165 39.9257C75.1915 39.7314 74.7296 39.6309 74.2623 39.6309C73.795 39.6309 73.3332 39.7314 72.9081 39.9257C72.4831 40.1199 72.1048 40.4033 71.799 40.7567L69.5668 43.5311C69.3934 43.7476 69.1679 43.9166 68.9114 44.0222C68.655 44.1279 68.3759 44.1668 68.1003 44.1352L64.5587 43.7546C64.0884 43.7027 63.6124 43.7571 63.166 43.9138C62.7196 44.0705 62.3141 44.3255 61.9794 44.66C61.6448 44.9945 61.3896 45.3999 61.2327 45.8463C61.0758 46.2927 61.0212 46.7686 61.0729 47.2389L61.458 50.7805C61.4894 51.0561 61.4505 51.3351 61.3448 51.5916C61.2392 51.848 61.0703 52.0735 60.8539 52.247L58.075 54.4808C57.7064 54.7768 57.4089 55.1519 57.2045 55.5782C57.0001 56.0045 56.894 56.4713 56.894 56.944C56.894 57.4168 57.0001 57.8836 57.2045 58.3099C57.4089 58.7362 57.7064 59.1113 58.075 59.4073L60.8509 61.6396C61.0672 61.8132 61.236 62.0387 61.3416 62.2951C61.4472 62.5515 61.4863 62.8305 61.455 63.1061L61.0699 66.6477C61.018 67.118 61.0724 67.5939 61.2291 68.0404C61.3858 68.4868 61.6408 68.8923 61.9753 69.2269C62.3098 69.5616 62.7152 69.8168 63.1616 69.9737C63.6079 70.1306 64.0838 70.1852 64.5541 70.1335L68.0973 69.7483C68.3728 69.7177 68.6516 69.7569 68.9079 69.8625C69.1643 69.9681 69.3898 70.1366 69.5638 70.3525L71.799 73.1329C72.0951 73.5015 72.4701 73.799 72.8965 74.0034C73.3228 74.2077 73.7895 74.3138 74.2623 74.3138C74.7351 74.3138 75.2019 74.2077 75.6282 74.0034C76.0545 73.799 76.4295 73.5015 76.7256 73.1329L78.9578 70.357C79.1319 70.1413 79.3575 69.9728 79.6138 69.8673C79.8701 69.7617 80.1488 69.7223 80.4243 69.7529L83.966 70.138C84.4363 70.1899 84.9122 70.1355 85.3586 69.9788C85.8051 69.8221 86.2106 69.5671 86.5452 69.2326C86.8799 68.8981 87.1351 68.4927 87.292 68.0463C87.4489 67.6 87.5035 67.124 87.4517 66.6537L87.0666 63.1106C87.0351 62.835 87.074 62.5559 87.1796 62.2995C87.2853 62.043 87.4542 61.8175 87.6707 61.6441L90.4466 59.4119C90.8152 59.1158 91.1127 58.7408 91.3171 58.3145C91.5215 57.8881 91.6276 57.4214 91.6276 56.9486C91.6276 56.4758 91.5215 56.009 91.3171 55.5827C91.1127 55.1564 90.8152 54.7814 90.4466 54.4853L90.4497 54.4808ZM74.8664 61.5761C74.6344 61.8783 74.341 62.1279 74.0055 62.3084C73.67 62.489 73.3 62.5963 72.92 62.6234C72.5399 62.6505 72.1585 62.5968 71.8007 62.4657C71.443 62.3347 71.1171 62.1293 70.8445 61.8631L67.1534 58.181C67.0091 58.0417 66.8941 57.875 66.8149 57.6907C66.7357 57.5065 66.6941 57.3083 66.6923 57.1078C66.6906 56.9072 66.7288 56.7084 66.8048 56.5227C66.8807 56.3371 66.9928 56.1685 67.1346 56.0267C67.2764 55.8849 67.4451 55.7728 67.6307 55.6968C67.8163 55.6209 68.0152 55.5827 68.2157 55.5844C68.4162 55.5861 68.6144 55.6278 68.7987 55.707C68.9829 55.7861 69.1496 55.9012 69.2889 56.0454L72.6886 59.4451L78.5923 51.5749C78.8327 51.2545 79.1905 51.0427 79.587 50.986C79.7833 50.958 79.9833 50.9689 80.1754 51.0181C80.3675 51.0673 80.5481 51.1539 80.7068 51.2729C80.8654 51.3919 80.9991 51.541 81.1001 51.7116C81.2012 51.8823 81.2676 52.0712 81.2957 52.2675C81.3237 52.4639 81.3128 52.6638 81.2636 52.856C81.2144 53.0481 81.1278 53.2286 81.0088 53.3873L74.8664 61.5761Z" fill="#3434FF"/>
</g>
<defs>
<filter id="filter0_d" x="52.894" y="37.6309" width="42.7336" height="42.6829" filterUnits="userSpaceOnUse" color-interpolation-filters="sRGB">
<feFlood flood-opacity="0" result="BackgroundImageFix"/>
<feColorMatrix in="SourceAlpha" type="matrix" values="0 0 0 0 0 0 0 0 0 0 0 0 0 0 0 0 0 0 127 0"/>
<feOffset dy="2"/>
<feGaussianBlur stdDeviation="2"/>
<feColorMatrix type="matrix" values="0 0 0 0 0.203922 0 0 0 0 0.203922 0 0 0 0 1 0 0 0 0.29 0"/>
<feBlend mode="normal" in2="BackgroundImageFix" result="effect1_dropShadow"/>
<feBlend mode="normal" in="SourceGraphic" in2="effect1_dropShadow" result="shape"/>
</filter>
<clipPath id="clip0">
<rect width="96" height="80" fill="white" transform="translate(0 0.5)"/>
</clipPath>
</defs>
</svg>
