<svg width="76" height="91" viewBox="0 0 76 91" fill="none" xmlns="http://www.w3.org/2000/svg">
<path d="M18.2251 50.3299C18.6598 50.2109 18.9613 49.816 18.9613 49.3653V49.1423C18.9613 48.8026 18.7888 48.4861 18.5034 48.302C16.2442 46.8446 14.6775 44.0825 14.6775 40.8654C14.6775 36.0345 18.1643 32.3105 22.2439 32.3105C26.3221 32.3105 29.8104 36.0346 29.8104 40.8654C29.8104 44.0825 28.2445 46.8444 25.9856 48.3018C25.7002 48.486 25.5278 48.8024 25.5278 49.1421V49.3651C25.5278 49.8158 25.8292 50.2108 26.2639 50.3297C32.0726 51.9184 36.2145 56.8236 36.2145 62.5315C36.2145 62.5302 36.2147 62.553 36.1961 62.6049C36.1772 62.6575 36.1414 62.7325 36.0773 62.829C35.9467 63.0255 35.7268 63.2696 35.3961 63.5464C34.7351 64.0996 33.731 64.7014 32.4348 65.2582C29.8489 66.3691 26.2403 67.2411 22.2434 67.2411C18.2669 67.2411 14.6643 66.2582 12.0697 65.0862C10.7706 64.4993 9.75299 63.878 9.07849 63.3333C8.73954 63.0595 8.51285 62.8257 8.37987 62.6472C8.31348 62.5581 8.28509 62.5028 8.27407 62.4787C8.29954 56.7937 12.4343 51.914 18.2251 50.3299Z" fill="white" stroke="#202058" stroke-width="2" stroke-linejoin="round"/>
<path d="M49.8135 50.2583C50.2481 50.1393 50.5496 49.7444 50.5496 49.2937V49.0707C50.5496 48.731 50.3771 48.4146 50.0917 48.2304C47.843 46.7796 46.2834 44.0299 46.2834 40.8272C46.2834 36.0174 49.7549 32.3105 53.8156 32.3105C57.8747 32.3105 61.3478 36.0175 61.3478 40.8272C61.3478 44.0302 59.7885 46.7799 57.5397 48.2307C57.2542 48.4148 57.0818 48.7313 57.0818 49.071V49.2933C57.0818 49.744 57.3832 50.139 57.818 50.2579C63.6021 51.8398 67.7261 56.724 67.7261 62.4071V62.4071C67.726 62.4089 67.7218 62.503 67.5901 62.7012C67.4603 62.8966 67.2416 63.1393 66.9124 63.4149C66.2544 63.9656 65.2547 64.5648 63.9639 65.1193C61.3888 66.2255 57.7952 67.0939 53.8149 67.0939C49.8549 67.0939 46.2673 66.1151 43.6836 64.9479C42.3898 64.3635 41.3766 63.7448 40.7052 63.2026C40.3678 62.9301 40.1422 62.6974 40.0101 62.52C39.9448 62.4324 39.9166 62.3778 39.9055 62.3536C39.9313 56.694 44.0477 51.8357 49.8135 50.2583Z" fill="white" stroke="#202058" stroke-width="2" stroke-linejoin="round"/>
<g filter="url(#filter0_d)">
<path fill-rule="evenodd" clip-rule="evenodd" d="M31.6415 49.561C22.5676 52.0433 15.9517 59.7588 15.9517 68.8902C15.9517 71.283 25.7898 77.2726 37.9285 77.2726C50.0671 77.2726 59.9076 71.9859 59.9076 68.8902C59.9076 59.7581 53.2924 52.0422 44.2179 49.5604V47.0196C47.7549 44.5697 50.1223 40.0927 50.1223 34.9749C50.1223 27.2266 44.6937 20.9473 38 20.9473C31.3042 20.9473 25.8777 27.2266 25.8777 34.9749C25.8777 40.0242 28.1831 44.4496 31.6415 46.92V49.561Z" fill="#3434FF" fill-opacity="0.01"/>
</g>
<path fill-rule="evenodd" clip-rule="evenodd" d="M31.6415 49.561C22.5676 52.0433 15.9517 59.7588 15.9517 68.8902C15.9517 71.283 25.7898 77.2726 37.9285 77.2726C50.0671 77.2726 59.9076 71.9859 59.9076 68.8902C59.9076 59.7581 53.2924 52.0422 44.2179 49.5604V47.0196C47.7549 44.5697 50.1223 40.0927 50.1223 34.9749C50.1223 27.2266 44.6937 20.9473 38 20.9473C31.3042 20.9473 25.8777 27.2266 25.8777 34.9749C25.8777 40.0242 28.1831 44.4496 31.6415 46.92V49.561Z" fill="#3434FF"/>
<path d="M49.2034 10.3064V4.27345C49.2034 3.16888 48.3079 2.27345 47.2034 2.27345H41.1704" stroke="#202058" stroke-width="3" stroke-linecap="round"/>
<path d="M49.0204 2.45703L39.5724 11.905C39.4066 12.0709 39.2098 12.2025 38.9931 12.2923C38.7765 12.3821 38.5442 12.4283 38.3097 12.4283C38.0752 12.4283 37.843 12.3821 37.6263 12.2923C37.4097 12.2025 37.2128 12.0709 37.0471 11.905L33.3245 8.18247C33.1587 8.01659 32.9619 7.885 32.7452 7.79521C32.5286 7.70543 32.2964 7.65922 32.0618 7.65922C31.8273 7.65922 31.5951 7.70543 31.3784 7.79521C31.1618 7.885 30.9649 8.01659 30.7992 8.18247L22.2437 16.7379" stroke="#202058" stroke-width="3" stroke-linecap="round"/>
<defs>
<filter id="filter0_d" x="7.95169" y="17.9473" width="59.956" height="72.3253" filterUnits="userSpaceOnUse" color-interpolation-filters="sRGB">
<feFlood flood-opacity="0" result="BackgroundImageFix"/>
<feColorMatrix in="SourceAlpha" type="matrix" values="0 0 0 0 0 0 0 0 0 0 0 0 0 0 0 0 0 0 127 0"/>
<feOffset dy="5"/>
<feGaussianBlur stdDeviation="4"/>
<feColorMatrix type="matrix" values="0 0 0 0 0.203922 0 0 0 0 0.203922 0 0 0 0 1 0 0 0 0.23 0"/>
<feBlend mode="normal" in2="BackgroundImageFix" result="effect1_dropShadow"/>
<feBlend mode="normal" in="SourceGraphic" in2="effect1_dropShadow" result="shape"/>
</filter>
</defs>
</svg>
