<svg width="140" height="93" viewBox="0 0 140 93" fill="none" xmlns="http://www.w3.org/2000/svg">
<path d="M78.4199 61.6754C78.4199 60.3846 78.516 59.0938 78.6781 57.833C78.9363 55.5096 79.4826 53.2822 80.2631 51.1809L80.2931 51.1149L83.391 44.9131L105.641 0.323492L118.657 6.78348L106.547 31.0325C107.418 30.9364 108.324 30.9004 109.225 30.9004C126.209 30.9004 140 44.6909 140 61.6754C140 78.6899 126.209 92.4805 109.225 92.4805C92.2105 92.4805 78.4199 78.6899 78.4199 61.6754Z" fill="#F5F7FF"/>
<path d="M1.59361e-06 61.6754C1.59361e-06 60.3846 0.0960657 59.0938 0.258166 57.8331C0.516326 55.5096 1.06266 53.2822 1.84315 51.1809L1.87316 51.1149L4.97107 44.9131L27.2208 0.317501L40.2369 6.77749L28.1274 31.0265C28.9979 30.9304 29.9045 30.8944 30.805 30.8944C47.7895 30.8944 61.5801 44.6849 61.5801 61.6694C61.5741 78.6899 47.7895 92.4805 30.805 92.4805C13.7845 92.4805 1.59361e-06 78.6899 1.59361e-06 61.6754Z" fill="#F5F7FF"/>
</svg>
