<svg width="258" height="201" viewBox="0 0 258 201" fill="none" xmlns="http://www.w3.org/2000/svg">
<g clip-path="url(#clip0)">
<path d="M141.5 182C188.168 182 226 144.168 226 97.5C226 50.8319 188.168 13 141.5 13C94.8319 13 57 50.8319 57 97.5C57 144.168 94.8319 182 141.5 182Z" fill="#F1F1FF" fill-opacity="0.6"/>
<path d="M222.154 37.2858H73.4526C64.0637 37.2858 56.4526 44.897 56.4526 54.2858V152.527C56.4526 161.916 64.0637 169.527 73.4526 169.527H222.154C231.542 169.527 239.154 161.916 239.154 152.527V54.2858C239.154 44.897 231.542 37.2858 222.154 37.2858Z" fill="white" stroke="#202058" stroke-width="2"/>
<path d="M226.651 25.8041H188C185.791 25.8041 184 27.595 184 29.8041V78.9281C184 81.1372 185.791 82.9281 188 82.9281H226.651C228.86 82.9281 230.651 81.1372 230.651 78.9281V29.8041C230.651 27.595 228.86 25.8041 226.651 25.8041Z" fill="#3434FF"/>
<path d="M226.651 86.804H188C185.791 86.804 184 88.5949 184 90.804V109.462C184 111.671 185.791 113.462 188 113.462H226.651C228.86 113.462 230.651 111.671 230.651 109.462V90.804C230.651 88.5949 228.86 86.804 226.651 86.804Z" fill="#F5F5FA"/>
<g filter="url(#filter0_d)">
<path d="M207.325 92.8041C203.344 92.8041 200.106 95.944 200.106 99.8041C200.106 103.664 203.344 106.804 207.325 106.804C211.306 106.804 214.545 103.664 214.545 99.8041C214.545 95.944 211.306 92.8041 207.325 92.8041ZM206.486 102.252C206.02 102.518 205.442 102.182 205.442 101.646V97.9623C205.442 97.4266 206.02 97.0906 206.486 97.356L209.715 99.1977C210.185 99.4656 210.185 100.143 209.715 100.41L206.486 102.252Z" fill="#3434FF" fill-opacity="0.01"/>
</g>
<path d="M207 104.094C209.37 104.094 211.29 102.173 211.29 99.804C211.29 97.4345 209.37 95.5137 207 95.5137C204.631 95.5137 202.71 97.4345 202.71 99.804C202.71 102.173 204.631 104.094 207 104.094Z" fill="white"/>
<path d="M207.325 92.8041C203.344 92.8041 200.106 95.944 200.106 99.8041C200.106 103.664 203.344 106.804 207.325 106.804C211.306 106.804 214.545 103.664 214.545 99.8041C214.545 95.944 211.306 92.8041 207.325 92.8041ZM206.486 102.252C206.02 102.518 205.442 102.182 205.442 101.646V97.9623C205.442 97.4266 206.02 97.0906 206.486 97.356L209.715 99.1977C210.185 99.4656 210.185 100.143 209.715 100.41L206.486 102.252Z" fill="#3434FF"/>
<path d="M226.651 116.804H188C185.791 116.804 184 118.595 184 120.804V139.462C184 141.671 185.791 143.462 188 143.462H226.651C228.86 143.462 230.651 141.671 230.651 139.462V120.804C230.651 118.595 228.86 116.804 226.651 116.804Z" fill="#F5F5FA"/>
<path d="M183.982 151.678C183.982 149.468 185.773 147.678 187.982 147.678H226.633C228.842 147.678 230.633 149.468 230.633 151.678V160.35C230.633 164.768 227.051 168.35 222.633 168.35H183.982V151.678Z" fill="#F5F5FA"/>
<g filter="url(#filter1_d)">
<path d="M207 46.0943C209.37 46.0943 211.29 44.1735 211.29 41.804C211.29 39.4345 209.37 37.5137 207 37.5137C204.631 37.5137 202.71 39.4345 202.71 41.804C202.71 44.1735 204.631 46.0943 207 46.0943Z" fill="#3434FF" fill-opacity="0.01"/>
<path d="M207.325 34.8041C203.344 34.8041 200.106 37.944 200.106 41.8041C200.106 45.6641 203.344 48.8041 207.325 48.8041C211.306 48.8041 214.545 45.6641 214.545 41.8041C214.545 37.944 211.306 34.8041 207.325 34.8041ZM206.486 44.2522C206.02 44.5176 205.442 44.1816 205.442 43.6458V39.9623C205.442 39.4266 206.02 39.0906 206.486 39.356L209.715 41.1977C210.185 41.4656 210.185 42.1426 209.715 42.4104L206.486 44.2522Z" fill="white" fill-opacity="0.01"/>
</g>
<path d="M207 46.0943C209.37 46.0943 211.29 44.1735 211.29 41.804C211.29 39.4345 209.37 37.5137 207 37.5137C204.631 37.5137 202.71 39.4345 202.71 41.804C202.71 44.1735 204.631 46.0943 207 46.0943Z" fill="#3434FF"/>
<path d="M207.325 34.8041C203.344 34.8041 200.106 37.944 200.106 41.8041C200.106 45.6641 203.344 48.8041 207.325 48.8041C211.306 48.8041 214.545 45.6641 214.545 41.8041C214.545 37.944 211.306 34.8041 207.325 34.8041ZM206.486 44.2522C206.02 44.5176 205.442 44.1816 205.442 43.6458V39.9623C205.442 39.4266 206.02 39.0906 206.486 39.356L209.715 41.1977C210.185 41.4656 210.185 42.1426 209.715 42.4104L206.486 44.2522Z" fill="white"/>
<path d="M223.5 52.8041H191.5C190.672 52.8041 190 53.4757 190 54.3041C190 55.1325 190.672 55.8041 191.5 55.8041H223.5C224.328 55.8041 225 55.1325 225 54.3041C225 53.4757 224.328 52.8041 223.5 52.8041Z" fill="white"/>
<path opacity="0.7" d="M221.5 58.8041H193.5C192.672 58.8041 192 59.4757 192 60.3041C192 61.1325 192.672 61.8041 193.5 61.8041H221.5C222.328 61.8041 223 61.1325 223 60.3041C223 59.4757 222.328 58.8041 221.5 58.8041Z" fill="white"/>
<path opacity="0.7" d="M223.5 64.8041H191.5C190.672 64.8041 190 65.4757 190 66.3041C190 67.1325 190.672 67.8041 191.5 67.8041H223.5C224.328 67.8041 225 67.1325 225 66.3041C225 65.4757 224.328 64.8041 223.5 64.8041Z" fill="white"/>
<path opacity="0.7" d="M216.5 70.8041H199.5C198.672 70.8041 198 71.4757 198 72.3041C198 73.1325 198.672 73.8041 199.5 73.8041H216.5C217.328 73.8041 218 73.1325 218 72.3041C218 71.4757 217.328 70.8041 216.5 70.8041Z" fill="white"/>
<path d="M73.5419 54.3751C75.6452 54.3751 77.3502 52.6701 77.3502 50.5668C77.3502 48.4636 75.6452 46.7585 73.5419 46.7585C71.4387 46.7585 69.7336 48.4636 69.7336 50.5668C69.7336 52.6701 71.4387 54.3751 73.5419 54.3751Z" fill="#3434FF"/>
<path d="M84.9667 54.3751C87.07 54.3751 88.775 52.6701 88.775 50.5668C88.775 48.4636 87.07 46.7585 84.9667 46.7585C82.8635 46.7585 81.1584 48.4636 81.1584 50.5668C81.1584 52.6701 82.8635 54.3751 84.9667 54.3751Z" fill="#ECECF4"/>
<path d="M96.3915 54.3751C98.4948 54.3751 100.2 52.6701 100.2 50.5668C100.2 48.4636 98.4948 46.7585 96.3915 46.7585C94.2883 46.7585 92.5833 48.4636 92.5833 50.5668C92.5833 52.6701 94.2883 54.3751 96.3915 54.3751Z" fill="#ECECF4"/>
<path d="M70.6199 69.0394C70.6199 64.6211 74.2016 61.0394 78.6199 61.0394H166.461C170.879 61.0394 174.461 64.6212 174.461 69.0394V168.35H70.6199V69.0394Z" fill="#F8F8FD"/>
<path d="M159.859 110.804H86.1412C84.4064 110.804 83 112.21 83 113.945V156.663C83 158.398 84.4064 159.804 86.1412 159.804H159.859C161.594 159.804 163 158.398 163 156.663V113.945C163 112.21 161.594 110.804 159.859 110.804Z" fill="#E8E8F7"/>
<g filter="url(#filter2_d)">
<path d="M123.733 142.802C127.874 142.802 131.231 139.445 131.231 135.304C131.231 131.163 127.874 127.806 123.733 127.806C119.592 127.806 116.235 131.163 116.235 135.304C116.235 139.445 119.592 142.802 123.733 142.802Z" fill="white" fill-opacity="0.01"/>
<path d="M123.001 123.071C116.043 123.071 110.384 128.558 110.384 135.304C110.384 142.05 116.043 147.537 123.001 147.537C129.958 147.537 135.617 142.05 135.617 135.304C135.617 128.558 129.958 123.071 123.001 123.071ZM120.753 140.027C120.288 140.293 119.709 139.957 119.709 139.421V131.187C119.709 130.651 120.288 130.315 120.753 130.581L127.972 134.698C128.441 134.965 128.441 135.642 127.972 135.91L120.753 140.027Z" fill="#3434FF" fill-opacity="0.01"/>
</g>
<path d="M123.733 142.802C127.874 142.802 131.231 139.445 131.231 135.304C131.231 131.163 127.874 127.806 123.733 127.806C119.592 127.806 116.235 131.163 116.235 135.304C116.235 139.445 119.592 142.802 123.733 142.802Z" fill="white"/>
<path d="M123.001 123.071C116.043 123.071 110.384 128.558 110.384 135.304C110.384 142.05 116.043 147.537 123.001 147.537C129.958 147.537 135.617 142.05 135.617 135.304C135.617 128.558 129.958 123.071 123.001 123.071ZM120.753 140.027C120.288 140.293 119.709 139.957 119.709 139.421V131.187C119.709 130.651 120.288 130.315 120.753 130.581L127.972 134.698C128.441 134.965 128.441 135.642 127.972 135.91L120.753 140.027Z" fill="#3434FF"/>
<path d="M101 72.8041H84C82.3431 72.8041 81 74.1473 81 75.8041C81 77.461 82.3431 78.8041 84 78.8041H101C102.657 78.8041 104 77.461 104 75.8041C104 74.1473 102.657 72.8041 101 72.8041Z" fill="#9595BC"/>
<path d="M155 84.8041H84C82.3431 84.8041 81 86.1472 81 87.8041C81 89.4609 82.3431 90.8041 84 90.8041H155C156.657 90.8041 158 89.4609 158 87.8041C158 86.1472 156.657 84.8041 155 84.8041Z" fill="#EAEAF2"/>
<path d="M120 93.8041H84C82.3431 93.8041 81 95.1472 81 96.8041C81 98.4609 82.3431 99.8041 84 99.8041H120C121.657 99.8041 123 98.4609 123 96.8041C123 95.1472 121.657 93.8041 120 93.8041Z" fill="#3434FF"/>
<path d="M147 93.8041H131C129.343 93.8041 128 95.1472 128 96.8041C128 98.4609 129.343 99.8041 131 99.8041H147C148.657 99.8041 150 98.4609 150 96.8041C150 95.1472 148.657 93.8041 147 93.8041Z" fill="#EAEAF2"/>
<path d="M174 113.804H71V167.804H174V113.804Z" fill="url(#paint0_linear)"/>
<g filter="url(#filter3_d)">
<path d="M207.325 123.804C203.344 123.804 200.106 126.944 200.106 130.804C200.106 134.664 203.344 137.804 207.325 137.804C211.306 137.804 214.545 134.664 214.545 130.804C214.545 126.944 211.306 123.804 207.325 123.804ZM206.486 133.252C206.02 133.518 205.442 133.182 205.442 132.646V128.962C205.442 128.427 206.02 128.091 206.486 128.356L209.715 130.198C210.185 130.466 210.185 131.143 209.715 131.41L206.486 133.252Z" fill="#3434FF" fill-opacity="0.01"/>
</g>
<path d="M207 135.094C209.369 135.094 211.29 133.173 211.29 130.804C211.29 128.435 209.369 126.514 207 126.514C204.63 126.514 202.71 128.435 202.71 130.804C202.71 133.173 204.63 135.094 207 135.094Z" fill="white"/>
<path d="M207.325 123.804C203.344 123.804 200.106 126.944 200.106 130.804C200.106 134.664 203.344 137.804 207.325 137.804C211.306 137.804 214.545 134.664 214.545 130.804C214.545 126.944 211.306 123.804 207.325 123.804ZM206.486 133.252C206.02 133.518 205.442 133.182 205.442 132.646V128.962C205.442 128.427 206.02 128.091 206.486 128.356L209.715 130.198C210.185 130.466 210.185 131.143 209.715 131.41L206.486 133.252Z" fill="#3434FF"/>
<g filter="url(#filter4_d)">
<path d="M207 153.804C203.019 153.804 199.781 156.944 199.781 160.804C199.781 164.664 203.019 167.804 207 167.804C210.981 167.804 214.22 164.664 214.22 160.804C214.22 156.944 210.981 153.804 207 153.804ZM206.161 163.252C205.695 163.518 205.117 163.182 205.117 162.646V158.962C205.117 158.427 205.695 158.091 206.161 158.356L209.39 160.198C209.86 160.466 209.86 161.143 209.39 161.41L206.161 163.252Z" fill="#3434FF" fill-opacity="0.01"/>
</g>
<path d="M207 165.094C209.369 165.094 211.29 163.173 211.29 160.804C211.29 158.435 209.369 156.514 207 156.514C204.63 156.514 202.71 158.435 202.71 160.804C202.71 163.173 204.63 165.094 207 165.094Z" fill="white"/>
<path d="M207 153.804C203.019 153.804 199.781 156.944 199.781 160.804C199.781 164.664 203.019 167.804 207 167.804C210.981 167.804 214.22 164.664 214.22 160.804C214.22 156.944 210.981 153.804 207 153.804ZM206.161 163.252C205.695 163.518 205.117 163.182 205.117 162.646V158.962C205.117 158.427 205.695 158.091 206.161 158.356L209.39 160.198C209.86 160.466 209.86 161.143 209.39 161.41L206.161 163.252Z" fill="#3434FF"/>
<g filter="url(#filter5_d)">
<path d="M59.1349 187.074C81.8531 187.074 100.27 168.657 100.27 145.939C100.27 123.221 81.8531 104.804 59.1349 104.804C36.4167 104.804 18 123.221 18 145.939C18 168.657 36.4167 187.074 59.1349 187.074Z" fill="#3434FF" fill-opacity="0.01"/>
</g>
<path d="M59.1349 187.074C81.8531 187.074 100.27 168.657 100.27 145.939C100.27 123.221 81.8531 104.804 59.1349 104.804C36.4167 104.804 18 123.221 18 145.939C18 168.657 36.4167 187.074 59.1349 187.074Z" fill="#3434FF"/>
<path d="M83.931 153.863L60.0968 145.188C59.0977 144.825 57.993 145.34 57.6293 146.339C57.2657 147.338 57.7808 148.443 58.78 148.806L82.6141 157.481C83.6133 157.845 84.718 157.33 85.0816 156.331C85.4453 155.332 84.9301 154.227 83.931 153.863Z" fill="white"/>
<path d="M69.6271 133.403C70.237 132.532 70.0253 131.332 69.1544 130.722C68.2834 130.112 67.083 130.324 66.4732 131.195L57.2534 144.362C56.6436 145.233 56.8553 146.433 57.7262 147.043C58.5971 147.653 59.7976 147.441 60.4074 146.571L69.6271 133.403Z" fill="white"/>
<path d="M59.1347 151.827C62.3864 151.827 65.0224 149.191 65.0224 145.939C65.0224 142.687 62.3864 140.051 59.1347 140.051C55.883 140.051 53.247 142.687 53.247 145.939C53.247 149.191 55.883 151.827 59.1347 151.827Z" fill="white"/>
</g>
<defs>
<filter id="filter0_d" x="196.616" y="90.3609" width="21.4194" height="20.9803" filterUnits="userSpaceOnUse" color-interpolation-filters="sRGB">
<feFlood flood-opacity="0" result="BackgroundImageFix"/>
<feColorMatrix in="SourceAlpha" type="matrix" values="0 0 0 0 0 0 0 0 0 0 0 0 0 0 0 0 0 0 127 0"/>
<feOffset dy="1.04706"/>
<feGaussianBlur stdDeviation="1.7451"/>
<feColorMatrix type="matrix" values="0 0 0 0 0.203922 0 0 0 0 0.203922 0 0 0 0 1 0 0 0 0.25 0"/>
<feBlend mode="normal" in2="BackgroundImageFix" result="effect1_dropShadow"/>
<feBlend mode="normal" in="SourceGraphic" in2="effect1_dropShadow" result="shape"/>
</filter>
<filter id="filter1_d" x="196.616" y="32.361" width="21.4194" height="20.9804" filterUnits="userSpaceOnUse" color-interpolation-filters="sRGB">
<feFlood flood-opacity="0" result="BackgroundImageFix"/>
<feColorMatrix in="SourceAlpha" type="matrix" values="0 0 0 0 0 0 0 0 0 0 0 0 0 0 0 0 0 0 127 0"/>
<feOffset dy="1.04706"/>
<feGaussianBlur stdDeviation="1.7451"/>
<feColorMatrix type="matrix" values="0 0 0 0 0.114722 0 0 0 0 0.114722 0 0 0 0 0.466667 0 0 0 0.25 0"/>
<feBlend mode="normal" in2="BackgroundImageFix" result="effect1_dropShadow"/>
<feBlend mode="normal" in="SourceGraphic" in2="effect1_dropShadow" result="shape"/>
</filter>
<filter id="filter2_d" x="106.893" y="120.628" width="32.2134" height="31.4464" filterUnits="userSpaceOnUse" color-interpolation-filters="sRGB">
<feFlood flood-opacity="0" result="BackgroundImageFix"/>
<feColorMatrix in="SourceAlpha" type="matrix" values="0 0 0 0 0 0 0 0 0 0 0 0 0 0 0 0 0 0 127 0"/>
<feOffset dy="1.04706"/>
<feGaussianBlur stdDeviation="1.7451"/>
<feColorMatrix type="matrix" values="0 0 0 0 0.203922 0 0 0 0 0.203922 0 0 0 0 1 0 0 0 0.25 0"/>
<feBlend mode="normal" in2="BackgroundImageFix" result="effect1_dropShadow"/>
<feBlend mode="normal" in="SourceGraphic" in2="effect1_dropShadow" result="shape"/>
</filter>
<filter id="filter3_d" x="196.616" y="121.361" width="21.4194" height="20.9804" filterUnits="userSpaceOnUse" color-interpolation-filters="sRGB">
<feFlood flood-opacity="0" result="BackgroundImageFix"/>
<feColorMatrix in="SourceAlpha" type="matrix" values="0 0 0 0 0 0 0 0 0 0 0 0 0 0 0 0 0 0 127 0"/>
<feOffset dy="1.04706"/>
<feGaussianBlur stdDeviation="1.7451"/>
<feColorMatrix type="matrix" values="0 0 0 0 0.203922 0 0 0 0 0.203922 0 0 0 0 1 0 0 0 0.25 0"/>
<feBlend mode="normal" in2="BackgroundImageFix" result="effect1_dropShadow"/>
<feBlend mode="normal" in="SourceGraphic" in2="effect1_dropShadow" result="shape"/>
</filter>
<filter id="filter4_d" x="196.29" y="151.361" width="21.4194" height="20.9804" filterUnits="userSpaceOnUse" color-interpolation-filters="sRGB">
<feFlood flood-opacity="0" result="BackgroundImageFix"/>
<feColorMatrix in="SourceAlpha" type="matrix" values="0 0 0 0 0 0 0 0 0 0 0 0 0 0 0 0 0 0 127 0"/>
<feOffset dy="1.04706"/>
<feGaussianBlur stdDeviation="1.7451"/>
<feColorMatrix type="matrix" values="0 0 0 0 0.203922 0 0 0 0 0.203922 0 0 0 0 1 0 0 0 0.25 0"/>
<feBlend mode="normal" in2="BackgroundImageFix" result="effect1_dropShadow"/>
<feBlend mode="normal" in="SourceGraphic" in2="effect1_dropShadow" result="shape"/>
</filter>
<filter id="filter5_d" x="6" y="94.8041" width="106.27" height="106.27" filterUnits="userSpaceOnUse" color-interpolation-filters="sRGB">
<feFlood flood-opacity="0" result="BackgroundImageFix"/>
<feColorMatrix in="SourceAlpha" type="matrix" values="0 0 0 0 0 0 0 0 0 0 0 0 0 0 0 0 0 0 127 0"/>
<feOffset dy="2"/>
<feGaussianBlur stdDeviation="6"/>
<feColorMatrix type="matrix" values="0 0 0 0 0.203922 0 0 0 0 0.203922 0 0 0 0 1 0 0 0 0.31 0"/>
<feBlend mode="normal" in2="BackgroundImageFix" result="effect1_dropShadow"/>
<feBlend mode="normal" in="SourceGraphic" in2="effect1_dropShadow" result="shape"/>
</filter>
<linearGradient id="paint0_linear" x1="122.5" y1="113.804" x2="122.5" y2="167.804" gradientUnits="userSpaceOnUse">
<stop stop-color="white" stop-opacity="0"/>
<stop offset="1" stop-color="white"/>
</linearGradient>
<clipPath id="clip0">
<rect width="258" height="201" fill="white"/>
</clipPath>
</defs>
</svg>
