<svg width="258" height="201" viewBox="0 0 258 201" fill="none" xmlns="http://www.w3.org/2000/svg">
<g clip-path="url(#clip0)">
<path d="M127 189C176.153 189 216 149.153 216 100C216 50.8467 176.153 11 127 11C77.8467 11 38 50.8467 38 100C38 149.153 77.8467 189 127 189Z" fill="#F1F1FF" fill-opacity="0.6"/>
<path d="M197 38H45C35.6112 38 28 45.6112 28 55V143C28 152.389 35.6112 160 45 160H197C206.389 160 214 152.389 214 143V55C214 45.6112 206.389 38 197 38Z" fill="white" stroke="#202058" stroke-width="2"/>
<path d="M121 60H46C41.5817 60 38 63.5817 38 68V139C38 143.418 41.5817 147 46 147H121C125.418 147 129 143.418 129 139V68C129 63.5817 125.418 60 121 60Z" fill="#F0F0FF"/>
<g filter="url(#filter0_d)">
<path d="M84 81C71.317 81 61 91.317 61 104C61 116.683 71.317 127 84 127C96.683 127 107 116.683 107 104C107 91.317 96.683 81 84 81ZM81.014 112.227C79.6808 113.011 78 112.05 78 110.503V97.4968C78 95.95 79.6808 94.9887 81.014 95.773L92.0694 102.276C93.384 103.049 93.384 104.951 92.0694 105.724L81.014 112.227Z" fill="#3434FF" fill-opacity="0.01"/>
</g>
<path d="M84.0001 118.097C91.7855 118.097 98.0969 111.785 98.0969 104C98.0969 96.2146 91.7855 89.9032 84.0001 89.9032C76.2147 89.9032 69.9033 96.2146 69.9033 104C69.9033 111.785 76.2147 118.097 84.0001 118.097Z" fill="white"/>
<path d="M84 81C71.317 81 61 91.317 61 104C61 116.683 71.317 127 84 127C96.683 127 107 116.683 107 104C107 91.317 96.683 81 84 81ZM81.014 112.227C79.6808 113.011 78 112.05 78 110.503V97.4968C78 95.95 79.6808 94.9887 81.014 95.773L92.0694 102.276C93.384 103.049 93.384 104.951 92.0694 105.724L81.014 112.227Z" fill="#3434FF"/>
<path d="M44 54C46.2091 54 48 52.2091 48 50C48 47.7909 46.2091 46 44 46C41.7909 46 40 47.7909 40 50C40 52.2091 41.7909 54 44 54Z" fill="#3434FF"/>
<path d="M56 54C58.2091 54 60 52.2091 60 50C60 47.7909 58.2091 46 56 46C53.7909 46 52 47.7909 52 50C52 52.2091 53.7909 54 56 54Z" fill="#ECECF4"/>
<path d="M200 60H141C138.791 60 137 61.7909 137 64V88C137 90.2091 138.791 92 141 92H200C202.209 92 204 90.2091 204 88V64C204 61.7909 202.209 60 200 60Z" fill="#F6F6FA"/>
<path d="M200 98H141C138.791 98 137 99.7909 137 102V126C137 128.209 138.791 130 141 130H200C202.209 130 204 128.209 204 126V102C204 99.7909 202.209 98 200 98Z" fill="#F6F6FA"/>
<g filter="url(#filter1_d)">
<path d="M200 138H141C138.791 138 137 139.791 137 142V169C137 171.209 138.791 173 141 173H200C202.209 173 204 171.209 204 169V142C204 139.791 202.209 138 200 138Z" fill="#3434FF" fill-opacity="0.01"/>
</g>
<path d="M200 138H141C138.791 138 137 139.791 137 142V169C137 171.209 138.791 173 141 173H200C202.209 173 204 171.209 204 169V142C204 139.791 202.209 138 200 138Z" fill="#3434FF"/>
<path d="M68 54C70.2091 54 72 52.2091 72 50C72 47.7909 70.2091 46 68 46C65.7909 46 64 47.7909 64 50C64 52.2091 65.7909 54 68 54Z" fill="#ECECF4"/>
<g filter="url(#filter2_d)">
<path d="M240 20H168C162.477 20 158 24.4772 158 30V66C158 71.5228 162.477 76 168 76H240C245.523 76 250 71.5228 250 66V30C250 24.4772 245.523 20 240 20Z" fill="white" fill-opacity="0.01"/>
</g>
<path d="M240 20H168C162.477 20 158 24.4772 158 30V66C158 71.5228 162.477 76 168 76H240C245.523 76 250 71.5228 250 66V30C250 24.4772 245.523 20 240 20Z" fill="white"/>
<path d="M240 21H168C163.029 21 159 25.0294 159 30V66C159 70.9706 163.029 75 168 75H240C244.971 75 249 70.9706 249 66V30C249 25.0294 244.971 21 240 21Z" stroke="#202058" stroke-width="2"/>
<g filter="url(#filter3_d)">
<path d="M175 30C170.589 30 167 33.5885 167 38C167 42.4115 170.589 46 175 46C179.411 46 183 42.4115 183 38C183 33.5885 179.411 30 175 30ZM174.253 40.6903C173.66 41.0388 172.913 40.6116 172.913 39.9241V36.0759C172.913 35.3884 173.66 34.9612 174.253 35.3097L177.524 37.2338C178.108 37.5775 178.108 38.4225 177.524 38.7662L174.253 40.6903Z" fill="#3434FF" fill-opacity="0.01"/>
</g>
<path d="M175 42.9031C177.708 42.9031 179.903 40.7079 179.903 37.9999C179.903 35.2919 177.708 33.0967 175 33.0967C172.292 33.0967 170.097 35.2919 170.097 37.9999C170.097 40.7079 172.292 42.9031 175 42.9031Z" fill="white"/>
<path d="M175 30C170.589 30 167 33.5885 167 38C167 42.4115 170.589 46 175 46C179.411 46 183 42.4115 183 38C183 33.5885 179.411 30 175 30ZM174.253 40.6903C173.66 41.0388 172.913 40.6116 172.913 39.9241V36.0759C172.913 35.3884 173.66 34.9612 174.253 35.3097L177.524 37.2338C178.108 37.5775 178.108 38.4225 177.524 38.7662L174.253 40.6903Z" fill="#3434FF"/>
<path d="M207.5 33H187.5C186.672 33 186 33.6716 186 34.5C186 35.3284 186.672 36 187.5 36H207.5C208.328 36 209 35.3284 209 34.5C209 33.6716 208.328 33 207.5 33Z" fill="#3434FF"/>
<path d="M217.5 40H187.5C186.672 40 186 40.6716 186 41.5C186 42.3284 186.672 43 187.5 43H217.5C218.328 43 219 42.3284 219 41.5C219 40.6716 218.328 40 217.5 40Z" fill="#ECECF4"/>
<path d="M190.5 50H168.5C167.672 50 167 50.6716 167 51.5C167 52.3284 167.672 53 168.5 53H190.5C191.328 53 192 52.3284 192 51.5C192 50.6716 191.328 50 190.5 50Z" fill="#ECECF4"/>
<path d="M211.5 57H168.5C167.672 57 167 57.6716 167 58.5C167 59.3284 167.672 60 168.5 60H211.5C212.328 60 213 59.3284 213 58.5C213 57.6716 212.328 57 211.5 57Z" fill="#ECECF4"/>
<path d="M177.5 64H168.5C167.672 64 167 64.6716 167 65.5C167 66.3284 167.672 67 168.5 67H177.5C178.328 67 179 66.3284 179 65.5C179 64.6716 178.328 64 177.5 64Z" fill="#ECECF4"/>
<path d="M198.5 64H184.5C183.672 64 183 64.6716 183 65.5C183 66.3284 183.672 67 184.5 67H198.5C199.328 67 200 66.3284 200 65.5C200 64.6716 199.328 64 198.5 64Z" fill="#ECECF4"/>
<path d="M239.5 50H197.5C196.672 50 196 50.6716 196 51.5C196 52.3284 196.672 53 197.5 53H239.5C240.328 53 241 52.3284 241 51.5C241 50.6716 240.328 50 239.5 50Z" fill="#ECECF4"/>
<path d="M225.5 57H218.5C217.672 57 217 57.6716 217 58.5C217 59.3284 217.672 60 218.5 60H225.5C226.328 60 227 59.3284 227 58.5C227 57.6716 226.328 57 225.5 57Z" fill="#3434FF"/>
<path d="M231.5 40H224.5C223.672 40 223 40.6716 223 41.5C223 42.3284 223.672 43 224.5 43H231.5C232.328 43 233 42.3284 233 41.5C233 40.6716 232.328 40 231.5 40Z" fill="#ECECF4"/>
<path d="M180.5 147H145.5C144.672 147 144 147.672 144 148.5C144 149.328 144.672 150 145.5 150H180.5C181.328 150 182 149.328 182 148.5C182 147.672 181.328 147 180.5 147Z" fill="white"/>
<path d="M196.5 154H145.5C144.672 154 144 154.672 144 155.5C144 156.328 144.672 157 145.5 157H196.5C197.328 157 198 156.328 198 155.5C198 154.672 197.328 154 196.5 154Z" fill="white"/>
<path d="M164.5 161H145.5C144.672 161 144 161.672 144 162.5C144 163.328 144.672 164 145.5 164H164.5C165.328 164 166 163.328 166 162.5C166 161.672 165.328 161 164.5 161Z" fill="white"/>
<g filter="url(#filter4_d)">
<path d="M62.5088 129H17.7719C12.9273 129 9 132.927 9 137.772V170.228C9 175.073 12.9273 179 17.7719 179H62.5088C67.3534 179 71.2807 175.073 71.2807 170.228V137.772C71.2807 132.927 67.3534 129 62.5088 129Z" fill="white" fill-opacity="0.01"/>
</g>
<path d="M62.5088 129H17.7719C12.9273 129 9 132.927 9 137.772V170.228C9 175.073 12.9273 179 17.7719 179H62.5088C67.3534 179 71.2807 175.073 71.2807 170.228V137.772C71.2807 132.927 67.3534 129 62.5088 129Z" fill="white"/>
<path d="M62.5088 130H17.7719C13.4796 130 10 133.48 10 137.772V170.228C10 174.52 13.4796 178 17.7719 178H62.5088C66.8011 178 70.2807 174.52 70.2807 170.228V137.772C70.2807 133.48 66.8011 130 62.5088 130Z" stroke="#202058" stroke-width="2"/>
<path d="M60.1913 138H20.1412C18.4064 138 17 139.406 17 141.141V163.129C17 164.864 18.4064 166.271 20.1412 166.271H60.1913C61.9261 166.271 63.3325 164.864 63.3325 163.129V141.141C63.3325 139.406 61.9261 138 60.1913 138Z" fill="#F6F6FA"/>
<g filter="url(#filter5_d)">
<path d="M40.5589 145.067C36.6615 145.067 33.4912 148.238 33.4912 152.135C33.4912 156.032 36.6615 159.203 40.5589 159.203C44.4562 159.203 47.6265 156.032 47.6265 152.135C47.6265 148.238 44.4562 145.067 40.5589 145.067ZM39.7671 154.589C39.3018 154.863 38.7151 154.527 38.7151 153.987V150.283C38.7151 149.743 39.3018 149.407 39.7671 149.681L42.9162 151.533C43.3751 151.803 43.3751 152.467 42.9162 152.737L39.7671 154.589Z" fill="#3434FF" fill-opacity="0.01"/>
</g>
<path d="M40.5593 156.467C42.9517 156.467 44.8911 154.527 44.8911 152.135C44.8911 149.743 42.9517 147.803 40.5593 147.803C38.1669 147.803 36.2275 149.743 36.2275 152.135C36.2275 154.527 38.1669 156.467 40.5593 156.467Z" fill="white"/>
<path d="M40.5589 145.067C36.6615 145.067 33.4912 148.238 33.4912 152.135C33.4912 156.032 36.6615 159.203 40.5589 159.203C44.4562 159.203 47.6265 156.032 47.6265 152.135C47.6265 148.238 44.4562 145.067 40.5589 145.067ZM39.7671 154.589C39.3018 154.863 38.7151 154.527 38.7151 153.987V150.283C38.7151 149.743 39.3018 149.407 39.7671 149.681L42.9162 151.533C43.3751 151.803 43.3751 152.467 42.9162 152.737L39.7671 154.589Z" fill="#3434FF"/>
<path d="M62.1546 168.627H18.1779C17.5274 168.627 17 169.154 17 169.805C17 170.456 17.5274 170.983 18.1779 170.983H62.1546C62.8051 170.983 63.3325 170.456 63.3325 169.805C63.3325 169.154 62.8051 168.627 62.1546 168.627Z" fill="#ECECF4"/>
<path d="M44.0927 168.627H18.1779C17.5274 168.627 17 169.154 17 169.805C17 170.456 17.5274 170.983 18.1779 170.983H44.0927C44.7432 170.983 45.2706 170.456 45.2706 169.805C45.2706 169.154 44.7432 168.627 44.0927 168.627Z" fill="#3434FF"/>
</g>
<defs>
<filter id="filter0_d" x="53" y="76" width="62" height="62" filterUnits="userSpaceOnUse" color-interpolation-filters="sRGB">
<feFlood flood-opacity="0" result="BackgroundImageFix"/>
<feColorMatrix in="SourceAlpha" type="matrix" values="0 0 0 0 0 0 0 0 0 0 0 0 0 0 0 0 0 0 127 0"/>
<feOffset dy="3"/>
<feGaussianBlur stdDeviation="4"/>
<feColorMatrix type="matrix" values="0 0 0 0 0.203922 0 0 0 0 0.203922 0 0 0 0 1 0 0 0 0.32 0"/>
<feBlend mode="normal" in2="BackgroundImageFix" result="effect1_dropShadow"/>
<feBlend mode="normal" in="SourceGraphic" in2="effect1_dropShadow" result="shape"/>
</filter>
<filter id="filter1_d" x="127" y="133" width="87" height="55" filterUnits="userSpaceOnUse" color-interpolation-filters="sRGB">
<feFlood flood-opacity="0" result="BackgroundImageFix"/>
<feColorMatrix in="SourceAlpha" type="matrix" values="0 0 0 0 0 0 0 0 0 0 0 0 0 0 0 0 0 0 127 0"/>
<feOffset dy="5"/>
<feGaussianBlur stdDeviation="5"/>
<feColorMatrix type="matrix" values="0 0 0 0 0.203922 0 0 0 0 0.203922 0 0 0 0 1 0 0 0 0.19 0"/>
<feBlend mode="normal" in2="BackgroundImageFix" result="effect1_dropShadow"/>
<feBlend mode="normal" in="SourceGraphic" in2="effect1_dropShadow" result="shape"/>
</filter>
<filter id="filter2_d" x="147" y="15" width="114" height="78" filterUnits="userSpaceOnUse" color-interpolation-filters="sRGB">
<feFlood flood-opacity="0" result="BackgroundImageFix"/>
<feColorMatrix in="SourceAlpha" type="matrix" values="0 0 0 0 0 0 0 0 0 0 0 0 0 0 0 0 0 0 127 0"/>
<feOffset dy="6"/>
<feGaussianBlur stdDeviation="5.5"/>
<feColorMatrix type="matrix" values="0 0 0 0 0.203922 0 0 0 0 0.203922 0 0 0 0 1 0 0 0 0.12 0"/>
<feBlend mode="normal" in2="BackgroundImageFix" result="effect1_dropShadow"/>
<feBlend mode="normal" in="SourceGraphic" in2="effect1_dropShadow" result="shape"/>
</filter>
<filter id="filter3_d" x="162.556" y="26.8889" width="24.8889" height="24.8889" filterUnits="userSpaceOnUse" color-interpolation-filters="sRGB">
<feFlood flood-opacity="0" result="BackgroundImageFix"/>
<feColorMatrix in="SourceAlpha" type="matrix" values="0 0 0 0 0 0 0 0 0 0 0 0 0 0 0 0 0 0 127 0"/>
<feOffset dy="1.33333"/>
<feGaussianBlur stdDeviation="2.22222"/>
<feColorMatrix type="matrix" values="0 0 0 0 0.203922 0 0 0 0 0.203922 0 0 0 0 1 0 0 0 0.25 0"/>
<feBlend mode="normal" in2="BackgroundImageFix" result="effect1_dropShadow"/>
<feBlend mode="normal" in="SourceGraphic" in2="effect1_dropShadow" result="shape"/>
</filter>
<filter id="filter4_d" x="-0.64912" y="124.614" width="81.5789" height="69.2982" filterUnits="userSpaceOnUse" color-interpolation-filters="sRGB">
<feFlood flood-opacity="0" result="BackgroundImageFix"/>
<feColorMatrix in="SourceAlpha" type="matrix" values="0 0 0 0 0 0 0 0 0 0 0 0 0 0 0 0 0 0 127 0"/>
<feOffset dy="5.26316"/>
<feGaussianBlur stdDeviation="4.82456"/>
<feColorMatrix type="matrix" values="0 0 0 0 0.203922 0 0 0 0 0.203922 0 0 0 0 1 0 0 0 0.12 0"/>
<feBlend mode="normal" in2="BackgroundImageFix" result="effect1_dropShadow"/>
<feBlend mode="normal" in="SourceGraphic" in2="effect1_dropShadow" result="shape"/>
</filter>
<filter id="filter5_d" x="30.001" y="142.624" width="21.1157" height="21.1164" filterUnits="userSpaceOnUse" color-interpolation-filters="sRGB">
<feFlood flood-opacity="0" result="BackgroundImageFix"/>
<feColorMatrix in="SourceAlpha" type="matrix" values="0 0 0 0 0 0 0 0 0 0 0 0 0 0 0 0 0 0 127 0"/>
<feOffset dy="1.04706"/>
<feGaussianBlur stdDeviation="1.7451"/>
<feColorMatrix type="matrix" values="0 0 0 0 0.203922 0 0 0 0 0.203922 0 0 0 0 1 0 0 0 0.25 0"/>
<feBlend mode="normal" in2="BackgroundImageFix" result="effect1_dropShadow"/>
<feBlend mode="normal" in="SourceGraphic" in2="effect1_dropShadow" result="shape"/>
</filter>
<clipPath id="clip0">
<rect width="258" height="201" fill="white"/>
</clipPath>
</defs>
</svg>
