<svg width="258" height="201" viewBox="0 0 258 201" fill="none" xmlns="http://www.w3.org/2000/svg">
<g clip-path="url(#clip0)">
<path d="M119.894 176.844C164.586 176.844 200.816 140.614 200.816 95.9219C200.816 51.23 164.586 15 119.894 15C75.2021 15 38.9721 51.23 38.9721 95.9219C38.9721 140.614 75.2021 176.844 119.894 176.844Z" fill="#F1F1FF" fill-opacity="0.6"/>
<path d="M196.095 37.6824H62.3212C55.1415 37.6824 49.3212 43.5027 49.3212 50.6824V123.536C49.3212 130.716 55.1415 136.536 62.3212 136.536H196.095C203.275 136.536 209.095 130.716 209.095 123.536V50.6824C209.095 43.5027 203.275 37.6824 196.095 37.6824Z" fill="white" stroke="#202058" stroke-width="2"/>
<path d="M122.2 67.6841H62.5932C60.8584 67.6841 59.452 69.0904 59.452 70.8253V104.747C59.452 106.481 60.8584 107.888 62.5932 107.888H122.2C123.935 107.888 125.341 106.481 125.341 104.747V70.8253C125.341 69.0904 123.935 67.6841 122.2 67.6841Z" fill="#F6F6FA"/>
<g filter="url(#filter0_d)">
<path d="M92.9551 77.7349C87.4127 77.7349 82.9042 82.2433 82.9042 87.7858C82.9042 93.3282 87.4127 97.8366 92.9551 97.8366C98.4975 97.8366 103.006 93.3282 103.006 87.7858C103.006 82.2433 98.4975 77.7349 92.9551 77.7349ZM91.3851 91.5369C90.9197 91.8106 90.3331 91.4751 90.3331 90.9352V84.6363C90.3331 84.0964 90.9197 83.7609 91.3851 84.0346L96.7392 87.1841C97.198 87.454 97.198 88.1175 96.7392 88.3874L91.3851 91.5369Z" fill="#3434FF" fill-opacity="0.01"/>
</g>
<path d="M92.9547 93.9459C96.3569 93.9459 99.1149 91.1879 99.1149 87.7857C99.1149 84.3835 96.3569 81.6255 92.9547 81.6255C89.5525 81.6255 86.7945 84.3835 86.7945 87.7857C86.7945 91.1879 89.5525 93.9459 92.9547 93.9459Z" fill="white"/>
<path d="M92.9551 77.7349C87.4127 77.7349 82.9042 82.2433 82.9042 87.7858C82.9042 93.3282 87.4127 97.8366 92.9551 97.8366C98.4975 97.8366 103.006 93.3282 103.006 87.7858C103.006 82.2433 98.4975 77.7349 92.9551 77.7349ZM91.3851 91.5369C90.9197 91.8106 90.3331 91.4751 90.3331 90.9352V84.6363C90.3331 84.0964 90.9197 83.7609 91.3851 84.0346L96.7392 87.1841C97.198 87.454 97.198 88.1175 96.7392 88.3874L91.3851 91.5369Z" fill="#3434FF"/>
<path d="M123.666 111.238H61.1271C60.2019 111.238 59.4519 111.988 59.4519 112.913C59.4519 113.838 60.2019 114.588 61.1271 114.588H123.666C124.591 114.588 125.341 113.838 125.341 112.913C125.341 111.988 124.591 111.238 123.666 111.238Z" fill="#ECECF4"/>
<path d="M123.666 111.238H61.1271C60.2019 111.238 59.4519 111.988 59.4519 112.913C59.4519 113.838 60.2019 114.588 61.1271 114.588H123.666C124.591 114.588 125.341 113.838 125.341 112.913C125.341 111.988 124.591 111.238 123.666 111.238Z" fill="#3434FF"/>
<path d="M122.2 120.114H62.5932C60.8584 120.114 59.452 121.52 59.452 123.255V157.176C59.452 158.911 60.8584 160.318 62.5932 160.318H122.2C123.935 160.318 125.341 158.911 125.341 157.176V123.255C125.341 121.52 123.935 120.114 122.2 120.114Z" fill="#F6F6FA"/>
<g filter="url(#filter1_d)">
<path d="M92.9551 130.164C87.4127 130.164 82.9042 134.673 82.9042 140.215C82.9042 145.758 87.4127 150.266 92.9551 150.266C98.4975 150.266 103.006 145.758 103.006 140.215C103.006 134.673 98.4975 130.164 92.9551 130.164ZM91.3851 143.966C90.9197 144.24 90.3331 143.905 90.3331 143.365V137.066C90.3331 136.526 90.9197 136.19 91.3851 136.464L96.7392 139.614C97.198 139.883 97.198 140.547 96.7392 140.817L91.3851 143.966Z" fill="#3434FF" fill-opacity="0.01"/>
</g>
<path d="M92.9547 146.375C96.3569 146.375 99.1149 143.617 99.1149 140.215C99.1149 136.813 96.3569 134.055 92.9547 134.055C89.5525 134.055 86.7945 136.813 86.7945 140.215C86.7945 143.617 89.5525 146.375 92.9547 146.375Z" fill="white"/>
<path d="M92.9551 130.164C87.4127 130.164 82.9042 134.673 82.9042 140.215C82.9042 145.758 87.4127 150.266 92.9551 150.266C98.4975 150.266 103.006 145.758 103.006 140.215C103.006 134.673 98.4975 130.164 92.9551 130.164ZM91.3851 143.966C90.9197 144.24 90.3331 143.905 90.3331 143.365V137.066C90.3331 136.526 90.9197 136.19 91.3851 136.464L96.7392 139.614C97.198 139.883 97.198 140.547 96.7392 140.817L91.3851 143.966Z" fill="#3434FF"/>
<path d="M123.666 163.667H61.1271C60.2019 163.667 59.4519 164.417 59.4519 165.342C59.4519 166.267 60.2019 167.017 61.1271 167.017H123.666C124.591 167.017 125.341 166.267 125.341 165.342C125.341 164.417 124.591 163.667 123.666 163.667Z" fill="#ECECF4"/>
<path d="M97.9804 163.667H61.1271C60.2019 163.667 59.4519 164.417 59.4519 165.342C59.4519 166.267 60.2019 167.017 61.1271 167.017H97.9804C98.9055 167.017 99.6555 166.267 99.6555 165.342C99.6555 164.417 98.9055 163.667 97.9804 163.667Z" fill="#3434FF"/>
<path d="M194.056 67.6841H134.449C132.714 67.6841 131.308 69.0904 131.308 70.8253V104.747C131.308 106.481 132.714 107.888 134.449 107.888H194.056C195.791 107.888 197.197 106.481 197.197 104.747V70.8253C197.197 69.0904 195.791 67.6841 194.056 67.6841Z" fill="#F6F6FA"/>
<g filter="url(#filter2_d)">
<path d="M164.81 77.7349C159.268 77.7349 154.76 82.2433 154.76 87.7858C154.76 93.3282 159.268 97.8366 164.81 97.8366C170.353 97.8366 174.861 93.3282 174.861 87.7858C174.861 82.2433 170.353 77.7349 164.81 77.7349ZM163.24 91.5369C162.775 91.8106 162.188 91.4751 162.188 90.9352V84.6363C162.188 84.0964 162.775 83.7609 163.24 84.0346L168.595 87.1841C169.053 87.454 169.053 88.1175 168.595 88.3874L163.24 91.5369Z" fill="#3434FF" fill-opacity="0.01"/>
</g>
<path d="M164.81 93.9459C168.212 93.9459 170.97 91.1879 170.97 87.7857C170.97 84.3835 168.212 81.6255 164.81 81.6255C161.408 81.6255 158.65 84.3835 158.65 87.7857C158.65 91.1879 161.408 93.9459 164.81 93.9459Z" fill="white"/>
<path d="M164.81 77.7349C159.268 77.7349 154.76 82.2433 154.76 87.7858C154.76 93.3282 159.268 97.8366 164.81 97.8366C170.353 97.8366 174.861 93.3282 174.861 87.7858C174.861 82.2433 170.353 77.7349 164.81 77.7349ZM163.24 91.5369C162.775 91.8106 162.188 91.4751 162.188 90.9352V84.6363C162.188 84.0964 162.775 83.7609 163.24 84.0346L168.595 87.1841C169.053 87.454 169.053 88.1175 168.595 88.3874L163.24 91.5369Z" fill="#3434FF"/>
<path d="M195.521 111.238H132.982C132.057 111.238 131.307 111.988 131.307 112.913C131.307 113.838 132.057 114.588 132.982 114.588H195.521C196.446 114.588 197.196 113.838 197.196 112.913C197.196 111.988 196.446 111.238 195.521 111.238Z" fill="#ECECF4"/>
<path d="M156.974 111.238H132.982C132.057 111.238 131.307 111.988 131.307 112.913C131.307 113.838 132.057 114.588 132.982 114.588H156.974C157.899 114.588 158.649 113.838 158.649 112.913C158.649 111.988 157.899 111.238 156.974 111.238Z" fill="#3434FF"/>
<path d="M194.056 120.114H134.449C132.714 120.114 131.308 121.52 131.308 123.255V157.176C131.308 158.911 132.714 160.318 134.449 160.318H194.056C195.791 160.318 197.197 158.911 197.197 157.176V123.255C197.197 121.52 195.791 120.114 194.056 120.114Z" fill="#F6F6FA"/>
<g filter="url(#filter3_d)">
<path d="M164.81 130.164C159.268 130.164 154.76 134.673 154.76 140.215C154.76 145.758 159.268 150.266 164.81 150.266C170.353 150.266 174.861 145.758 174.861 140.215C174.861 134.673 170.353 130.164 164.81 130.164ZM163.24 143.966C162.775 144.24 162.188 143.905 162.188 143.365V137.066C162.188 136.526 162.775 136.19 163.24 136.464L168.595 139.614C169.053 139.883 169.053 140.547 168.595 140.817L163.24 143.966Z" fill="#3434FF" fill-opacity="0.01"/>
</g>
<path d="M164.81 146.375C168.212 146.375 170.97 143.617 170.97 140.215C170.97 136.813 168.212 134.055 164.81 134.055C161.408 134.055 158.65 136.813 158.65 140.215C158.65 143.617 161.408 146.375 164.81 146.375Z" fill="white"/>
<path d="M164.81 130.164C159.268 130.164 154.76 134.673 154.76 140.215C154.76 145.758 159.268 150.266 164.81 150.266C170.353 150.266 174.861 145.758 174.861 140.215C174.861 134.673 170.353 130.164 164.81 130.164ZM163.24 143.966C162.775 144.24 162.188 143.905 162.188 143.365V137.066C162.188 136.526 162.775 136.19 163.24 136.464L168.595 139.614C169.053 139.883 169.053 140.547 168.595 140.817L163.24 143.966Z" fill="#3434FF"/>
<path d="M195.521 163.667H132.982C132.057 163.667 131.307 164.417 131.307 165.342C131.307 166.267 132.057 167.017 132.982 167.017H195.521C196.446 167.017 197.196 166.267 197.196 165.342C197.196 164.417 196.446 163.667 195.521 163.667Z" fill="#ECECF4"/>
<path d="M169.835 163.667H132.982C132.057 163.667 131.307 164.417 131.307 165.342C131.307 166.267 132.057 167.017 132.982 167.017H169.835C170.761 167.017 171.511 166.267 171.511 165.342C171.511 164.417 170.761 163.667 169.835 163.667Z" fill="#3434FF"/>
<path d="M196.672 44.606H61.7457C60.0888 44.606 58.7457 45.9491 58.7457 47.606V59.6375C58.7457 61.2943 60.0888 62.6375 61.7457 62.6375H196.672C198.329 62.6375 199.672 61.2943 199.672 59.6375V47.606C199.672 45.9491 198.329 44.606 196.672 44.606Z" fill="#F3F3FF"/>
<g filter="url(#filter4_d)">
<path d="M210.095 98.5638C231.184 98.5638 248.281 81.4675 248.281 60.3781C248.281 39.2887 231.184 22.1924 210.095 22.1924C189.006 22.1924 171.909 39.2887 171.909 60.3781C171.909 81.4675 189.006 98.5638 210.095 98.5638Z" fill="white" fill-opacity="0.01"/>
</g>
<path d="M210.095 98.5638C231.184 98.5638 248.281 81.4675 248.281 60.3781C248.281 39.2887 231.184 22.1924 210.095 22.1924C189.006 22.1924 171.909 39.2887 171.909 60.3781C171.909 81.4675 189.006 98.5638 210.095 98.5638Z" fill="white"/>
<path d="M210.095 97.5638C230.632 97.5638 247.281 80.9152 247.281 60.3781C247.281 39.841 230.632 23.1924 210.095 23.1924C189.558 23.1924 172.909 39.841 172.909 60.3781C172.909 80.9152 189.558 97.5638 210.095 97.5638Z" stroke="#202058" stroke-width="2"/>
<path d="M210.095 24.4419C219.622 24.4419 228.759 28.2266 235.496 34.9634C242.233 41.7003 246.018 50.8374 246.018 60.3647C246.018 69.892 242.233 79.0291 235.496 85.7659C228.759 92.5027 219.622 96.2874 210.095 96.2874V60.3647V24.4419Z" fill="#E0E0F7"/>
<g filter="url(#filter5_d)">
<path d="M233.114 67.734L210.988 59.6811C210.061 59.3435 209.035 59.8217 208.698 60.7492L208.698 60.7492C208.36 61.6766 208.838 62.7022 209.766 63.0397L231.891 71.0927C232.819 71.4303 233.844 70.9521 234.182 70.0246C234.519 69.0971 234.041 68.0716 233.114 67.734Z" fill="#202058" fill-opacity="0.01"/>
<path d="M219.835 48.7411C220.401 47.9326 220.204 46.8183 219.396 46.2522C218.587 45.686 217.473 45.8825 216.907 46.691L208.348 58.9142C207.782 59.7226 207.979 60.837 208.787 61.4031C209.596 61.9692 210.71 61.7727 211.276 60.9642L219.835 48.7411Z" fill="#202058" fill-opacity="0.01"/>
<path d="M210.095 65.8439C213.114 65.8439 215.561 63.3969 215.561 60.3784C215.561 57.3599 213.114 54.9128 210.095 54.9128C207.076 54.9128 204.629 57.3599 204.629 60.3784C204.629 63.3969 207.076 65.8439 210.095 65.8439Z" fill="#202058" fill-opacity="0.01"/>
</g>
<path d="M233.114 67.734L210.988 59.6811C210.061 59.3435 209.035 59.8217 208.698 60.7492L208.698 60.7492C208.36 61.6766 208.838 62.7022 209.766 63.0397L231.891 71.0927C232.819 71.4303 233.844 70.9521 234.182 70.0246C234.519 69.0971 234.041 68.0716 233.114 67.734Z" fill="#202058"/>
<path d="M219.835 48.7411C220.401 47.9326 220.204 46.8183 219.396 46.2522C218.587 45.686 217.473 45.8825 216.907 46.691L208.348 58.9142C207.782 59.7226 207.979 60.837 208.787 61.4031C209.596 61.9692 210.71 61.7727 211.276 60.9642L219.835 48.7411Z" fill="#202058"/>
<path d="M210.095 65.8439C213.114 65.8439 215.561 63.3969 215.561 60.3784C215.561 57.3599 213.114 54.9128 210.095 54.9128C207.076 54.9128 204.629 57.3599 204.629 60.3784C204.629 63.3969 207.076 65.8439 210.095 65.8439Z" fill="#202058"/>
<path d="M61.4894 137.5H197.409C203.242 137.5 208.667 140.491 211.782 145.423L230.601 175.221C233.545 179.882 230.196 185.958 224.683 185.958H33.8745C28.3361 185.958 24.9912 179.831 27.9866 175.173L47.1901 145.306C50.3183 140.441 55.7054 137.5 61.4894 137.5Z" fill="#F4F4FA" stroke="#202058" stroke-width="2"/>
<path d="M60.9105 135.124H197.986C203.519 135.124 208.705 137.817 211.889 142.341L229.51 167.383C232.774 172.021 229.457 178.411 223.786 178.411H34.7919C29.0938 178.411 25.7831 171.967 29.1015 167.335L47.0908 142.224C50.2833 137.768 55.4287 135.124 60.9105 135.124Z" fill="white" stroke="#202058" stroke-width="2"/>
<path d="M109.252 164.843C109.994 163.735 111.241 163.07 112.575 163.07H145.851C147.186 163.07 148.433 163.736 149.176 164.846L152.639 170.025C153.528 171.354 152.576 173.137 150.977 173.137H107.443C105.843 173.137 104.891 171.352 105.781 170.024L109.252 164.843Z" fill="#F0F0F9"/>
<path d="M60.1448 140.223C60.9048 139.327 62.0207 138.81 63.1962 138.81H196.628C197.812 138.81 198.935 139.334 199.695 140.242L214.09 157.436C215.18 158.738 214.254 160.72 212.556 160.72H47.0893C45.3858 160.72 44.4622 158.726 45.5636 157.427L60.1448 140.223Z" fill="#F0F0F9"/>
<g filter="url(#filter6_d)">
<path d="M46.452 90.1936C26.3511 90.1936 10 106.545 10 126.646C10 146.747 26.3511 163.098 46.452 163.098C66.5529 163.098 82.9041 146.747 82.9041 126.646C82.9041 106.545 66.5529 90.1936 46.452 90.1936ZM40.9364 140.145C39.1698 141.184 36.9428 139.911 36.9428 137.861V115.43C36.9428 113.381 39.1698 112.107 40.9364 113.146L60.0026 124.362C61.7444 125.386 61.7444 127.905 60.0026 128.93L40.9364 140.145Z" fill="#3434FF" fill-opacity="0.01"/>
</g>
<path d="M46.3797 145.947C57.8391 145.947 67.1288 136.657 67.1288 125.198C67.1288 113.739 57.8391 104.449 46.3797 104.449C34.9203 104.449 25.6306 113.739 25.6306 125.198C25.6306 136.657 34.9203 145.947 46.3797 145.947Z" fill="white"/>
<path d="M46.1152 145.915C56.9024 145.915 65.6471 137.17 65.6471 126.383C65.6471 115.596 56.9024 106.851 46.1152 106.851C35.328 106.851 26.5833 115.596 26.5833 126.383C26.5833 137.17 35.328 145.915 46.1152 145.915Z" fill="white"/>
<path d="M46.452 90.1936C26.3511 90.1936 10 106.545 10 126.646C10 146.747 26.3511 163.098 46.452 163.098C66.5529 163.098 82.9041 146.747 82.9041 126.646C82.9041 106.545 66.5529 90.1936 46.452 90.1936ZM40.9364 140.145C39.1698 141.184 36.9428 139.911 36.9428 137.861V115.43C36.9428 113.381 39.1698 112.107 40.9364 113.146L60.0026 124.362C61.7444 125.386 61.7444 127.905 60.0026 128.93L40.9364 140.145Z" fill="#3434FF"/>
</g>
<defs>
<filter id="filter0_d" x="79.414" y="75.2918" width="27.0822" height="27.0821" filterUnits="userSpaceOnUse" color-interpolation-filters="sRGB">
<feFlood flood-opacity="0" result="BackgroundImageFix"/>
<feColorMatrix in="SourceAlpha" type="matrix" values="0 0 0 0 0 0 0 0 0 0 0 0 0 0 0 0 0 0 127 0"/>
<feOffset dy="1.04706"/>
<feGaussianBlur stdDeviation="1.7451"/>
<feColorMatrix type="matrix" values="0 0 0 0 0.203922 0 0 0 0 0.203922 0 0 0 0 1 0 0 0 0.25 0"/>
<feBlend mode="normal" in2="BackgroundImageFix" result="effect1_dropShadow"/>
<feBlend mode="normal" in="SourceGraphic" in2="effect1_dropShadow" result="shape"/>
</filter>
<filter id="filter1_d" x="79.414" y="127.721" width="27.0822" height="27.0824" filterUnits="userSpaceOnUse" color-interpolation-filters="sRGB">
<feFlood flood-opacity="0" result="BackgroundImageFix"/>
<feColorMatrix in="SourceAlpha" type="matrix" values="0 0 0 0 0 0 0 0 0 0 0 0 0 0 0 0 0 0 127 0"/>
<feOffset dy="1.04706"/>
<feGaussianBlur stdDeviation="1.7451"/>
<feColorMatrix type="matrix" values="0 0 0 0 0.203922 0 0 0 0 0.203922 0 0 0 0 1 0 0 0 0.25 0"/>
<feBlend mode="normal" in2="BackgroundImageFix" result="effect1_dropShadow"/>
<feBlend mode="normal" in="SourceGraphic" in2="effect1_dropShadow" result="shape"/>
</filter>
<filter id="filter2_d" x="151.27" y="75.2918" width="27.0814" height="27.0821" filterUnits="userSpaceOnUse" color-interpolation-filters="sRGB">
<feFlood flood-opacity="0" result="BackgroundImageFix"/>
<feColorMatrix in="SourceAlpha" type="matrix" values="0 0 0 0 0 0 0 0 0 0 0 0 0 0 0 0 0 0 127 0"/>
<feOffset dy="1.04706"/>
<feGaussianBlur stdDeviation="1.7451"/>
<feColorMatrix type="matrix" values="0 0 0 0 0.203922 0 0 0 0 0.203922 0 0 0 0 1 0 0 0 0.25 0"/>
<feBlend mode="normal" in2="BackgroundImageFix" result="effect1_dropShadow"/>
<feBlend mode="normal" in="SourceGraphic" in2="effect1_dropShadow" result="shape"/>
</filter>
<filter id="filter3_d" x="151.27" y="127.721" width="27.0814" height="27.0824" filterUnits="userSpaceOnUse" color-interpolation-filters="sRGB">
<feFlood flood-opacity="0" result="BackgroundImageFix"/>
<feColorMatrix in="SourceAlpha" type="matrix" values="0 0 0 0 0 0 0 0 0 0 0 0 0 0 0 0 0 0 127 0"/>
<feOffset dy="1.04706"/>
<feGaussianBlur stdDeviation="1.7451"/>
<feColorMatrix type="matrix" values="0 0 0 0 0.203922 0 0 0 0 0.203922 0 0 0 0 1 0 0 0 0.25 0"/>
<feBlend mode="normal" in2="BackgroundImageFix" result="effect1_dropShadow"/>
<feBlend mode="normal" in="SourceGraphic" in2="effect1_dropShadow" result="shape"/>
</filter>
<filter id="filter4_d" x="152.909" y="9.19241" width="114.371" height="114.371" filterUnits="userSpaceOnUse" color-interpolation-filters="sRGB">
<feFlood flood-opacity="0" result="BackgroundImageFix"/>
<feColorMatrix in="SourceAlpha" type="matrix" values="0 0 0 0 0 0 0 0 0 0 0 0 0 0 0 0 0 0 127 0"/>
<feOffset dy="6"/>
<feGaussianBlur stdDeviation="9.5"/>
<feColorMatrix type="matrix" values="0 0 0 0 0.164913 0 0 0 0 0.164913 0 0 0 0 0.670833 0 0 0 0.21 0"/>
<feBlend mode="normal" in2="BackgroundImageFix" result="effect1_dropShadow"/>
<feBlend mode="normal" in="SourceGraphic" in2="effect1_dropShadow" result="shape"/>
</filter>
<filter id="filter5_d" x="199.629" y="42.9288" width="39.6607" height="35.2722" filterUnits="userSpaceOnUse" color-interpolation-filters="sRGB">
<feFlood flood-opacity="0" result="BackgroundImageFix"/>
<feColorMatrix in="SourceAlpha" type="matrix" values="0 0 0 0 0 0 0 0 0 0 0 0 0 0 0 0 0 0 127 0"/>
<feOffset dy="2"/>
<feGaussianBlur stdDeviation="2.5"/>
<feColorMatrix type="matrix" values="0 0 0 0 0.12 0 0 0 0 0.12 0 0 0 0 0.8 0 0 0 0.18 0"/>
<feBlend mode="normal" in2="BackgroundImageFix" result="effect1_dropShadow"/>
<feBlend mode="normal" in="SourceGraphic" in2="effect1_dropShadow" result="shape"/>
</filter>
<filter id="filter6_d" x="-6" y="79.1936" width="104.904" height="104.904" filterUnits="userSpaceOnUse" color-interpolation-filters="sRGB">
<feFlood flood-opacity="0" result="BackgroundImageFix"/>
<feColorMatrix in="SourceAlpha" type="matrix" values="0 0 0 0 0 0 0 0 0 0 0 0 0 0 0 0 0 0 127 0"/>
<feOffset dy="5"/>
<feGaussianBlur stdDeviation="8"/>
<feColorMatrix type="matrix" values="0 0 0 0 0.203922 0 0 0 0 0.203922 0 0 0 0 1 0 0 0 0.24 0"/>
<feBlend mode="normal" in2="BackgroundImageFix" result="effect1_dropShadow"/>
<feBlend mode="normal" in="SourceGraphic" in2="effect1_dropShadow" result="shape"/>
</filter>
<clipPath id="clip0">
<rect width="258" height="201" fill="white"/>
</clipPath>
</defs>
</svg>
