<svg width="168" height="27" viewBox="0 0 168 27" fill="none" xmlns="http://www.w3.org/2000/svg">
<path d="M13.5417 21.7357L20.3093 25.8399C21.3771 26.4872 22.6941 25.5251 22.4108 24.3058L20.6144 16.5696L26.5947 11.3638C27.5372 10.544 27.0333 8.98801 25.7912 8.88264L17.919 8.21207L14.8396 0.911042C14.3534 -0.239879 12.7299 -0.239879 12.2437 0.911042L9.16431 8.21207L1.29215 8.88264C0.0500376 8.98801 -0.45389 10.544 0.48859 11.3638L6.46898 16.5696L4.67255 24.3058C4.38926 25.5251 5.70628 26.4872 6.77406 25.8399L13.5417 21.7357Z" fill="#FFB321"/>
<path d="M48.6247 21.7357L55.3923 25.8399C56.4601 26.4872 57.7771 25.5251 57.4938 24.3058L55.6974 16.5696L61.6778 11.3638C62.6202 10.544 62.1163 8.98801 60.8742 8.88264L53.002 8.21207L49.9226 0.911042C49.4364 -0.239879 47.8129 -0.239879 47.3267 0.911042L44.2473 8.21207L36.3752 8.88264C35.133 8.98801 34.6291 10.544 35.5716 11.3638L41.552 16.5696L39.7556 24.3058C39.4723 25.5251 40.7893 26.4872 41.8571 25.8399L48.6247 21.7357Z" fill="#FFB321"/>
<path d="M83.7077 21.7357L90.4753 25.8399C91.5431 26.4872 92.8601 25.5251 92.5768 24.3058L90.7804 16.5696L96.7608 11.3638C97.7032 10.544 97.1993 8.98801 95.9572 8.88264L88.085 8.21207L85.0056 0.911042C84.5194 -0.239879 82.896 -0.239879 82.4097 0.911042L79.3303 8.21207L71.4582 8.88264C70.2161 8.98801 69.7121 10.544 70.6546 11.3638L76.635 16.5696L74.8386 24.3058C74.5553 25.5251 75.8723 26.4872 76.9401 25.8399L83.7077 21.7357Z" fill="#FFB321"/>
<path d="M118.791 21.7357L125.558 25.8399C126.626 26.4872 127.943 25.5251 127.66 24.3058L125.863 16.5696L131.844 11.3638C132.786 10.544 132.282 8.98801 131.04 8.88264L123.168 8.21207L120.089 0.911042C119.602 -0.239879 117.979 -0.239879 117.493 0.911042L114.413 8.21207L106.541 8.88264C105.299 8.98801 104.795 10.544 105.738 11.3638L111.718 16.5696L109.922 24.3058C109.638 25.5251 110.955 26.4872 112.023 25.8399L118.791 21.7357Z" fill="#FFB321"/>
<path d="M153.874 21.7357L160.641 25.8399C161.709 26.4872 163.026 25.5251 162.743 24.3058L160.946 16.5696L166.927 11.3638C167.869 10.544 167.365 8.98801 166.123 8.88264L158.251 8.21207L155.172 0.911042C154.685 -0.239879 153.062 -0.239879 152.576 0.911042L149.496 8.21207L141.624 8.88264C140.382 8.98801 139.878 10.544 140.821 11.3638L146.801 16.5696L145.005 24.3058C144.721 25.5251 146.038 26.4872 147.106 25.8399L153.874 21.7357Z" fill="#FFB321"/>
</svg>
