<svg width="28" height="28" viewBox="0 0 28 28" fill="none" xmlns="http://www.w3.org/2000/svg">
<path d="M18.1663 11.5005L13.743 17.3982C13.6713 17.4937 13.58 17.5726 13.4752 17.6297C13.3704 17.6868 13.2545 17.7207 13.1355 17.7291C13.0165 17.7375 12.897 17.7203 12.7852 17.6785C12.6734 17.6368 12.5718 17.5715 12.4874 17.4871L9.83301 14.8338" stroke="#3434FF" stroke-width="2" stroke-linecap="round" stroke-linejoin="round"/>
<path d="M12.5885 2.17582C12.7582 1.96485 12.9731 1.79463 13.2173 1.67767C13.4615 1.56071 13.7288 1.5 13.9996 1.5C14.2704 1.5 14.5377 1.56071 14.7819 1.67767C15.0261 1.79463 15.241 1.96485 15.4107 2.17582L17.0907 4.26581C17.281 4.50292 17.5279 4.68829 17.8087 4.8048C18.0895 4.92132 18.3951 4.96522 18.6974 4.93247L21.364 4.64248C21.634 4.61249 21.9072 4.6436 22.1635 4.73351C22.4198 4.82341 22.6526 4.96981 22.8446 5.16186C23.0367 5.35392 23.1831 5.58671 23.273 5.843C23.3629 6.09929 23.394 6.37253 23.364 6.64247L23.074 9.30913C23.0413 9.61137 23.0852 9.917 23.2017 10.1978C23.3182 10.4786 23.5036 10.7255 23.7407 10.9158L25.8307 12.5958C26.0416 12.7655 26.2119 12.9804 26.3288 13.2246C26.4458 13.4688 26.5065 13.7361 26.5065 14.0069C26.5065 14.2777 26.4458 14.545 26.3288 14.7892C26.2119 15.0334 26.0416 15.2483 25.8307 15.418L23.734 17.0902C23.497 17.2808 23.3117 17.5279 23.1952 17.8089C23.0787 18.0898 23.0347 18.3956 23.0674 18.698L23.3574 21.3646C23.3876 21.6346 23.3566 21.908 23.2668 22.1644C23.1769 22.4207 23.0305 22.6536 22.8384 22.8457C22.6463 23.0378 22.4135 23.1842 22.1571 23.274C21.9007 23.3639 21.6274 23.3948 21.3574 23.3646L18.6907 23.0746C18.3885 23.0418 18.0828 23.0856 17.802 23.2022C17.5212 23.3187 17.2742 23.5041 17.084 23.7413L15.4107 25.8235C15.2411 26.0347 15.0263 26.2051 14.782 26.3221C14.5378 26.4392 14.2704 26.5 13.9996 26.5C13.7288 26.5 13.4614 26.4392 13.2172 26.3221C12.9729 26.2051 12.7581 26.0347 12.5885 25.8235L10.9096 23.7346C10.7191 23.4975 10.472 23.3122 10.191 23.1957C9.91003 23.0791 9.60425 23.0352 9.30184 23.068L6.63518 23.358C6.36515 23.3884 6.09174 23.3576 5.83525 23.2678C5.57875 23.1781 5.34578 23.0317 5.15363 22.8395C4.96148 22.6474 4.81509 22.4144 4.72534 22.1579C4.63559 21.9014 4.60477 21.628 4.63519 21.358L4.92519 18.6913C4.95792 18.3889 4.91402 18.0831 4.79751 17.8022C4.681 17.5212 4.49565 17.2741 4.25853 17.0835L2.16964 15.4047C1.95849 15.2351 1.7881 15.0202 1.67102 14.776C1.55394 14.5318 1.49316 14.2644 1.49316 13.9936C1.49316 13.7227 1.55394 13.4553 1.67102 13.2111C1.7881 12.9669 1.95849 12.7521 2.16964 12.5825L4.25853 10.9025C4.49572 10.7123 4.68114 10.4653 4.79766 10.1845C4.91418 9.9037 4.95804 9.59805 4.92519 9.29579L4.63519 6.62914C4.60499 6.35915 4.63595 6.08582 4.72578 5.82943C4.81561 5.57304 4.962 5.34016 5.15411 5.14806C5.34621 4.95596 5.57909 4.80956 5.83548 4.71973C6.09187 4.6299 6.3652 4.59894 6.63518 4.62914L9.30184 4.91914C9.60424 4.95177 9.90999 4.90782 10.1909 4.79132C10.4719 4.67482 10.719 4.48952 10.9096 4.25248L12.5885 2.17582Z" stroke="#3434FF" stroke-width="2" stroke-linecap="round" stroke-linejoin="round"/>
</svg>
