<svg width="26" height="20" viewBox="0 0 26 20" fill="none" xmlns="http://www.w3.org/2000/svg">
<path d="M2.56543 14.6522V2.91306C2.56543 2.49794 2.73034 2.09982 3.02387 1.80628C3.31741 1.51275 3.71553 1.34784 4.13065 1.34784H21.348C21.7632 1.34784 22.1613 1.51275 22.4548 1.80628C22.7484 2.09982 22.9133 2.49794 22.9133 2.91306V14.6522" stroke="#3434FF" stroke-width="1.22143" stroke-linecap="round" stroke-linejoin="round"/>
<path d="M15.4355 14.6522C15.1639 15.1275 14.7714 15.5227 14.2979 15.7975C13.8244 16.0723 13.2866 16.217 12.7391 16.217C12.1916 16.217 11.6539 16.0723 11.1804 15.7975C10.7068 15.5227 10.3144 15.1275 10.0428 14.6522H1V16.2174C1 17.0476 1.32981 17.8439 1.91688 18.4309C2.50395 19.018 3.30019 19.3478 4.13043 19.3478H21.3478C22.1781 19.3478 22.9743 19.018 23.5614 18.4309C24.1484 17.8439 24.4783 17.0476 24.4783 16.2174V14.6522H15.4355Z" stroke="#3434FF" stroke-width="1.22143" stroke-linecap="round" stroke-linejoin="round"/>
<path d="M11.6186 5.34537C11.4888 5.28433 11.3461 5.25559 11.2027 5.26158C11.0594 5.26758 10.9196 5.30814 10.7953 5.37981C10.6746 5.44812 10.574 5.54692 10.5035 5.66631C10.433 5.7857 10.3951 5.92151 10.3936 6.06016V9.93981C10.3952 10.0784 10.4332 10.2142 10.5037 10.3336C10.5742 10.453 10.6747 10.5518 10.7953 10.6202C10.9196 10.6918 11.0594 10.7324 11.2027 10.7384C11.3461 10.7444 11.4888 10.7156 11.6186 10.6546L15.2593 8.93598C15.4413 8.8564 15.5962 8.72547 15.7049 8.55923C15.8137 8.39298 15.8716 8.19864 15.8716 7.99998C15.8716 7.80133 15.8137 7.60698 15.7049 7.44074C15.5962 7.2745 15.4413 7.14357 15.2593 7.06398L11.6186 5.34537Z" stroke="#3434FF" stroke-width="1.22143" stroke-linecap="round" stroke-linejoin="round"/>
</svg>
