<svg width="26" height="26" viewBox="0 0 26 26" fill="none" xmlns="http://www.w3.org/2000/svg">
<path d="M18.9063 16.4287C18.3116 17.4703 17.452 18.3361 16.4148 18.9383C15.3775 19.5405 14.1994 19.8577 13 19.8577C11.8006 19.8577 10.6225 19.5405 9.58524 18.9383C8.54797 18.3361 7.6884 17.4703 7.09371 16.4287H2.71429C2.25963 16.4287 1.82359 16.6093 1.5021 16.9308C1.18061 17.2523 1 17.6883 1 18.143V23.2859C1 23.7405 1.18061 24.1765 1.5021 24.498C1.82359 24.8195 2.25963 25.0001 2.71429 25.0001H23.2857C23.7404 25.0001 24.1764 24.8195 24.4979 24.498C24.8194 24.1765 25 23.7405 25 23.2859V18.143C25 17.6883 24.8194 17.2523 24.4979 16.9308C24.1764 16.6093 23.7404 16.4287 23.2857 16.4287H18.9063Z" stroke="#3434FF" stroke-width="2" stroke-linecap="round" stroke-linejoin="round"/>
<path d="M13 13V1" stroke="#3434FF" stroke-width="2" stroke-linecap="round" stroke-linejoin="round"/>
<path d="M8.71387 9.57129L12.9996 12.9999L17.2853 9.57129" stroke="#3434FF" stroke-width="2" stroke-linecap="round" stroke-linejoin="round"/>
</svg>
