<svg width="20" height="22" viewBox="0 0 20 22" fill="none" xmlns="http://www.w3.org/2000/svg">
<path d="M14.7347 21H2.7347C2.38108 21 2.04194 20.8595 1.79189 20.6095C1.54184 20.3594 1.40137 20.0203 1.40137 19.6667V5" stroke="#3434FF" stroke-width="1.2" stroke-linecap="round" stroke-linejoin="round"/>
<path d="M17.4007 18.3333H5.40072C5.04709 18.3333 4.70796 18.1928 4.45791 17.9428C4.20786 17.6927 4.06738 17.3536 4.06738 17V2.33331" stroke="#3434FF" stroke-width="1.2" stroke-linecap="round" stroke-linejoin="round"/>
<path d="M18.7353 14.3333C18.7353 14.6869 18.5949 15.0261 18.3448 15.2761C18.0948 15.5262 17.7556 15.6667 17.402 15.6667H8.06868C7.71506 15.6667 7.37592 15.5262 7.12588 15.2761C6.87583 15.0261 6.73535 14.6869 6.73535 14.3333V2.33333C6.73535 1.97971 6.87583 1.64057 7.12588 1.39052C7.37592 1.14048 7.71506 1 8.06868 1H14.85C15.2034 1.00008 15.5423 1.14043 15.7922 1.39022L18.3451 3.94311C18.5949 4.19306 18.7353 4.53196 18.7353 4.88533V14.3333Z" stroke="#3434FF" stroke-width="1.2" stroke-linecap="round" stroke-linejoin="round"/>
<path d="M11.1504 9.82953L12.7344 11.4135L14.3184 9.82953" stroke="#3434FF" stroke-width="1.2" stroke-linecap="round" stroke-linejoin="round"/>
<path d="M12.7344 5.25317L12.7344 10.9768" stroke="#3434FF" stroke-width="1.2" stroke-linecap="round" stroke-linejoin="round"/>
</svg>
