<svg width="22" height="22" viewBox="0 0 22 22" fill="none" xmlns="http://www.w3.org/2000/svg">
<path d="M20.7353 12.0442C20.7353 10.8066 20.2437 9.61957 19.3685 8.7444C18.4933 7.86923 17.3064 7.37756 16.0687 7.37756H13.402C12.1643 7.37756 10.9774 7.86923 10.1022 8.7444C9.22702 9.61957 8.73535 10.8066 8.73535 12.0442C8.73535 13.2819 9.22702 14.4689 10.1022 15.3441C10.9774 16.2192 12.1643 16.7109 13.402 16.7109H14.0687L18.0687 20.7109V16.2451C18.8649 15.8687 19.5381 15.2742 20.0101 14.5307C20.4821 13.7871 20.7336 12.9249 20.7353 12.0442Z" stroke="#3434FF" stroke-width="1.2" stroke-linecap="round" stroke-linejoin="round"/>
<path d="M6.06779 11.3776L3.40112 14.0442V9.57844C2.44369 9.12614 1.66899 8.36105 1.20477 7.40934C0.740554 6.45763 0.614541 5.37613 0.847513 4.34318C1.08049 3.31023 1.65853 2.38753 2.48632 1.72722C3.31412 1.06691 4.34223 0.708426 5.40112 0.710889H8.06779C9.07282 0.711012 10.051 1.03547 10.8568 1.63603C11.6627 2.23658 12.2532 3.08117 12.5407 4.04422" stroke="#3434FF" stroke-width="1.2" stroke-linecap="round" stroke-linejoin="round"/>
</svg>
