<svg width="23" height="22" viewBox="0 0 23 22" fill="none" xmlns="http://www.w3.org/2000/svg">
<path d="M5.31966 17.3775C6.60833 17.3775 7.65299 16.3328 7.65299 15.0441C7.65299 13.7555 6.60833 12.7108 5.31966 12.7108C4.031 12.7108 2.98633 13.7555 2.98633 15.0441C2.98633 16.3328 4.031 17.3775 5.31966 17.3775Z" stroke="#3434FF" stroke-width="1.2" stroke-linecap="round" stroke-linejoin="round"/>
<path d="M9.0776 20.7108C8.80584 19.9316 8.29837 19.2561 7.62552 18.7782C6.95268 18.3002 6.14781 18.0435 5.32249 18.0435C4.49718 18.0435 3.6923 18.3002 3.01946 18.7782C2.34662 19.2561 1.83914 19.9316 1.56738 20.7108" stroke="#3434FF" stroke-width="1.2" stroke-linecap="round" stroke-linejoin="round"/>
<path d="M8.89965 8.71087V10.7109L6.23298 8.71087H2.89876C2.54514 8.71087 2.206 8.5704 1.95595 8.32035C1.70591 8.0703 1.56543 7.73116 1.56543 7.37754V2.04421C1.56543 1.69059 1.70591 1.35145 1.95595 1.1014C2.206 0.851352 2.54514 0.710876 2.89876 0.710876H10.233" stroke="#3434FF" stroke-width="1.2" stroke-linecap="round" stroke-linejoin="round"/>
<path d="M17.8118 17.3775C19.1005 17.3775 20.1452 16.3328 20.1452 15.0441C20.1452 13.7555 19.1005 12.7108 17.8118 12.7108C16.5232 12.7108 15.4785 13.7555 15.4785 15.0441C15.4785 16.3328 16.5232 17.3775 17.8118 17.3775Z" stroke="#3434FF" stroke-width="1.2" stroke-linecap="round" stroke-linejoin="round"/>
<path d="M14.0557 20.7108C14.3274 19.9316 14.8349 19.2561 15.5077 18.7782C16.1806 18.3002 16.9855 18.0435 17.8108 18.0435C18.6361 18.0435 19.441 18.3002 20.1138 18.7782C20.7866 19.2561 21.2941 19.9316 21.5659 20.7108" stroke="#3434FF" stroke-width="1.2" stroke-linecap="round" stroke-linejoin="round"/>
<path d="M12.8997 10.7109H13.5664V12.7109L16.2331 10.7109H20.2331C20.5867 10.7109 20.9258 10.5704 21.1759 10.3204C21.4259 10.0703 21.5664 9.73116 21.5664 9.37754V4.04421C21.5664 3.69059 21.4259 3.35145 21.1759 3.1014C20.9258 2.85135 20.5867 2.71088 20.2331 2.71088H12.8997C12.5461 2.71088 12.207 2.85135 11.9569 3.1014C11.7069 3.35145 11.5664 3.69059 11.5664 4.04421V9.37754C11.5664 9.73116 11.7069 10.0703 11.9569 10.3204C12.207 10.5704 12.5461 10.7109 12.8997 10.7109Z" stroke="#3434FF" stroke-width="1.2" stroke-linecap="round" stroke-linejoin="round"/>
</svg>
